{"glyphs":{"0":{"ha":772,"x_min":0,"x_max":0,"o":"m 47 496 b 386 -19 47 392 47 -19 b 725 496 692 -19 725 364 b 386 1011 725 600 725 1011 b 47 496 81 1011 47 628 z m 235 496 b 386 992 235 846 243 992 b 538 496 529 992 538 863 b 386 0 538 146 529 0 b 235 496 243 0 235 146 z "},"1":{"ha":772,"x_min":0,"x_max":0,"o":"m 625 19 l 497 19 l 497 1011 l 442 1011 b 135 800 332 908 268 876 l 146 782 b 328 885 206 815 267 851 l 328 19 l 197 19 l 197 0 l 625 0 z "},"2":{"ha":772,"x_min":0,"x_max":0,"o":"m 207 144 l 413 347 l 513 450 b 660 742 633 575 660 682 b 368 1011 660 881 576 1011 b 81 815 160 1011 81 879 b 165 744 81 744 139 744 b 244 806 208 744 244 760 b 236 883 244 817 236 872 b 350 992 236 975 300 992 b 472 736 457 992 472 885 b 50 26 472 429 372 335 l 42 19 l 42 0 l 675 0 l 675 285 l 656 285 b 513 144 647 144 539 144 z "},"3":{"ha":772,"x_min":0,"x_max":0,"o":"m 28 197 b 315 -19 65 36 176 -19 b 692 289 576 -19 692 156 b 361 568 692 469 533 540 l 361 571 b 663 807 525 611 663 663 b 371 1011 663 876 613 1011 b 99 832 207 1011 99 942 b 175 765 99 781 140 765 b 263 831 210 765 263 765 b 251 915 263 843 251 901 b 349 992 251 971 297 992 b 482 817 482 992 482 867 b 326 579 482 610 372 589 b 146 517 260 567 207 556 l 157 497 b 324 553 210 531 263 553 b 504 303 504 553 504 406 b 296 0 504 143 476 0 b 50 204 125 0 63 133 z "},"4":{"ha":772,"x_min":0,"x_max":0,"o":"m 436 240 l 69 240 b 575 919 188 508 475 836 b 604 967 592 933 604 947 b 525 1011 604 1006 558 1011 b 343 861 471 1011 433 1011 b 43 221 228 669 81 336 l 436 221 l 436 19 l 314 19 l 314 0 l 729 0 l 729 19 l 606 19 l 606 221 l 729 221 l 729 240 l 606 240 l 606 596 l 436 596 z "},"5":{"ha":772,"x_min":0,"x_max":0,"o":"m 108 428 l 126 428 b 319 592 154 483 199 592 b 486 314 411 592 486 557 b 310 0 486 3 385 0 b 226 86 279 0 226 15 b 233 151 226 96 233 142 b 149 213 233 183 218 213 b 64 135 131 213 64 211 b 317 -19 64 53 171 -19 b 674 325 544 -19 674 174 b 354 615 674 500 528 615 b 147 518 231 615 193 572 l 144 521 l 194 825 b 406 764 250 803 342 764 b 675 989 513 764 551 817 l 657 997 b 479 900 589 903 507 900 b 243 1001 365 900 271 975 l 201 1001 z "},"6":{"ha":772,"x_min":0,"x_max":0,"o":"m 44 417 b 396 -19 44 139 199 -19 b 728 296 564 -19 728 124 b 411 608 728 471 581 608 b 232 518 299 608 258 553 l 229 521 b 481 992 246 686 282 992 b 547 933 542 992 547 946 b 524 838 547 908 524 871 b 606 776 524 801 542 776 b 689 858 663 776 689 801 b 488 1011 689 965 586 1011 b 44 417 236 1011 44 731 z m 540 321 b 390 0 540 24 475 0 b 228 353 325 0 228 14 b 265 525 228 465 239 490 b 401 589 307 581 365 589 b 540 321 503 589 540 496 z "},"7":{"ha":772,"x_min":0,"x_max":0,"o":"m 101 714 l 121 714 b 214 819 126 756 146 819 l 646 819 b 314 207 619 678 517 396 l 193 94 b 165 36 176 78 165 63 b 257 -19 165 -7 213 -19 b 544 411 361 -19 421 107 b 688 989 638 639 688 882 l 101 989 z "},"8":{"ha":772,"x_min":0,"x_max":0,"o":"m 54 238 b 369 -19 54 90 200 -19 b 707 303 574 -19 707 158 b 478 583 707 432 626 515 b 664 801 606 642 664 711 b 403 1011 664 921 546 1011 b 94 746 231 1011 94 903 b 275 497 94 603 176 551 b 54 238 154 438 54 381 z m 414 425 b 563 208 510 374 563 325 b 369 0 563 124 522 0 b 206 243 275 0 206 58 b 296 488 206 321 211 436 z m 226 824 b 386 992 226 917 290 992 b 519 800 515 992 519 849 b 460 593 519 642 486 615 b 226 824 319 657 226 700 z "},"9":{"ha":772,"x_min":0,"x_max":0,"o":"m 33 696 b 350 383 33 521 181 383 b 525 474 463 383 503 439 l 528 474 b 318 0 528 204 490 0 b 232 63 283 0 232 0 b 249 158 232 85 249 135 b 176 215 249 210 206 215 b 85 129 119 215 85 188 b 314 -19 85 76 124 -19 b 717 575 599 -19 715 253 b 365 1011 717 853 563 1011 b 33 696 197 1011 33 868 z m 221 671 b 371 992 221 951 294 992 b 529 639 436 992 529 978 b 522 529 529 593 525 546 b 360 403 506 450 442 403 b 221 671 267 403 221 479 z "}," ":{"ha":386,"x_min":0,"x_max":0,"o":""},"!":{"ha":411,"x_min":0,"x_max":0,"o":"m 192 279 l 219 279 l 286 831 b 296 917 292 876 296 904 b 206 1011 296 972 260 1011 b 115 917 151 1011 115 972 b 125 831 115 904 119 876 z m 107 85 b 206 -14 107 31 151 -14 b 304 85 260 -14 304 31 b 206 183 304 139 260 183 b 107 85 151 183 107 139 z "},"\"":{"ha":514,"x_min":0,"x_max":0,"o":"m 142 589 l 167 589 l 203 885 b 208 943 206 904 208 925 b 154 1011 208 997 179 1011 b 100 943 129 1011 100 997 b 106 885 100 925 103 904 z m 347 589 l 372 589 l 408 885 b 414 943 411 904 414 925 b 360 1011 414 997 385 1011 b 306 943 335 1011 306 997 b 311 885 306 925 308 904 z "},"#":{"ha":772,"x_min":0,"x_max":0,"o":"m 208 329 l 443 329 l 324 0 l 353 0 l 472 329 l 657 329 l 667 354 l 482 354 l 582 629 l 767 629 l 776 654 l 592 654 l 713 989 l 683 989 l 563 654 l 328 654 l 449 989 l 419 989 l 299 654 l 114 654 l 104 629 l 289 629 l 189 354 l 4 354 l -6 329 l 179 329 l 60 0 l 89 0 z m 318 629 l 553 629 l 453 354 l 218 354 z "},"$":{"ha":875,"x_min":0,"x_max":0,"o":"m 435 419 b 669 214 563 382 669 340 b 435 -1 669 143 621 4 z m 411 638 b 201 818 293 671 201 717 b 411 992 201 896 276 983 z m 411 1011 b 97 725 225 1000 97 867 b 411 425 97 524 260 471 l 411 -1 b 210 82 358 -1 288 6 b 97 308 133 157 106 264 l 78 308 l 78 0 l 99 0 b 142 32 108 25 117 32 b 411 -21 179 32 299 -19 l 411 -118 l 435 -118 l 435 -21 b 797 317 651 -10 797 142 b 435 632 797 531 601 581 l 435 992 b 700 725 613 989 657 851 l 719 725 l 719 989 l 696 989 b 657 960 688 967 682 960 b 435 1011 613 960 556 1010 l 435 1093 l 411 1093 z "},"%":{"ha":1081,"x_min":0,"x_max":0,"o":"m 779 0 b 674 204 674 0 674 85 b 779 408 674 324 674 408 b 885 204 885 408 885 324 b 779 0 885 85 885 0 z m 265 -7 l 293 -19 l 815 999 l 788 1011 z m 301 583 b 196 788 196 583 196 668 b 301 992 196 907 196 992 b 407 788 407 992 407 907 b 301 583 407 668 407 583 z m 779 -19 b 1018 204 897 -19 1018 74 b 779 428 1018 335 897 428 b 540 204 661 428 540 335 b 779 -19 540 74 661 -19 z m 301 564 b 540 788 419 564 540 657 b 301 1011 540 918 419 1011 b 63 788 183 1011 63 918 b 301 564 63 657 183 564 z "},"&":{"ha":1106,"x_min":0,"x_max":0,"o":"m 543 685 b 664 869 644 751 664 813 b 533 1011 664 972 603 1011 b 326 789 429 1011 326 903 b 371 624 326 740 342 701 b 101 283 253 550 101 456 b 438 -21 101 189 157 -21 b 661 63 557 -21 607 19 b 814 -21 696 18 733 -21 b 994 158 993 -21 994 144 b 990 181 994 167 992 176 l 971 181 b 975 156 974 171 975 165 b 910 53 975 140 965 53 b 851 93 876 53 858 81 l 788 206 b 858 503 844 288 856 431 b 974 681 865 661 890 665 l 974 700 l 693 700 l 693 681 b 838 499 789 681 838 653 b 776 228 838 358 803 265 z m 617 140 b 653 79 626 121 635 106 b 521 17 607 43 571 17 b 263 428 385 17 263 325 b 378 608 263 519 300 549 b 408 544 383 599 396 569 z m 646 867 b 535 701 646 775 572 726 b 463 894 501 758 463 840 b 553 992 463 992 543 992 b 646 867 618 992 646 926 z "},"’":{"ha":386,"x_min":0,"x_max":0,"o":"m 113 576 b 310 846 192 626 310 701 b 182 1011 310 951 253 1011 b 76 913 133 1011 76 982 b 172 814 76 842 133 814 b 231 828 192 814 214 817 b 251 771 240 819 251 800 b 103 594 251 704 193 657 z "},"(":{"ha":360,"x_min":0,"x_max":0,"o":"m 338 -383 b 126 300 185 -160 126 65 b 338 983 126 535 185 760 l 315 997 b 99 300 290 965 99 703 b 315 -397 99 -103 290 -365 z "},")":{"ha":360,"x_min":0,"x_max":0,"o":"m 44 -397 b 261 300 69 -365 261 -103 b 44 997 261 703 69 965 l 22 983 b 233 300 175 760 233 535 b 22 -383 233 65 175 -160 z "},"*":{"ha":669,"x_min":0,"x_max":0,"o":"m 67 826 b 150 750 67 789 88 757 b 328 713 193 746 274 735 b 183 683 282 700 242 689 b 65 603 125 676 65 671 b 142 529 65 564 97 529 b 242 615 176 529 193 546 b 331 710 261 643 288 669 b 293 586 326 668 325 664 b 261 488 264 515 261 507 b 335 419 261 451 296 419 b 408 488 374 419 408 451 b 376 586 408 507 406 515 b 338 710 344 664 343 668 b 426 615 381 669 407 643 b 526 529 475 546 492 529 b 603 603 571 529 603 564 b 485 683 603 671 543 676 b 340 713 426 689 386 700 l 340 715 b 519 750 396 735 476 746 b 603 826 582 757 603 789 b 532 901 603 871 564 901 b 338 721 450 901 447 811 b 376 844 343 763 344 767 b 408 943 406 915 408 924 b 335 1011 408 979 374 1011 b 261 943 296 1011 261 979 b 293 844 261 924 264 915 b 332 721 325 767 326 763 b 138 901 222 811 219 901 b 67 826 106 901 67 871 z "},"+":{"ha":824,"x_min":0,"x_max":0,"o":"m 397 0 l 425 0 l 425 321 l 744 321 l 744 346 l 425 346 l 425 667 l 397 667 l 397 346 l 78 346 l 78 321 l 397 321 z "},",":{"ha":386,"x_min":0,"x_max":0,"o":"m 113 -251 b 310 18 192 -201 310 -126 b 182 183 310 124 253 183 b 76 85 133 183 76 154 b 172 -14 76 14 133 -14 b 203 -11 182 -14 193 -12 b 231 0 213 -8 222 -6 b 251 -57 240 -8 251 -28 b 103 -233 251 -124 193 -171 z "},"-":{"ha":514,"x_min":0,"x_max":0,"o":"m 126 231 l 388 231 l 388 367 l 126 367 z "},".":{"ha":386,"x_min":0,"x_max":0,"o":"m 94 85 b 193 -14 94 31 139 -14 b 292 85 247 -14 292 31 b 193 183 292 139 247 183 b 94 85 139 183 94 139 z "},"/":{"ha":411,"x_min":0,"x_max":0,"o":"m 4 0 l 32 -8 l 407 989 l 379 997 z "},":":{"ha":386,"x_min":0,"x_max":0,"o":"m 94 517 b 193 418 94 463 139 418 b 292 517 247 418 292 463 b 193 615 292 571 247 615 b 94 517 139 615 94 571 z m 94 85 b 193 -14 94 31 139 -14 b 292 85 247 -14 292 31 b 193 183 292 139 247 183 b 94 85 139 183 94 139 z "},";":{"ha":386,"x_min":0,"x_max":0,"o":"m 113 -251 b 310 18 192 -201 310 -126 b 182 183 310 124 253 183 b 76 85 133 183 76 154 b 172 -14 76 14 133 -14 b 203 -11 182 -14 193 -12 b 231 0 213 -8 222 -6 b 251 -57 240 -8 251 -28 b 103 -233 251 -124 193 -171 z m 94 517 b 193 418 94 463 139 418 b 292 517 247 418 292 463 b 193 615 292 571 247 615 b 94 517 139 615 94 571 z "},"<":{"ha":824,"x_min":0,"x_max":0,"o":"m 806 28 l 63 333 l 806 639 l 806 667 l 17 339 l 17 328 l 806 0 z "},"=":{"ha":824,"x_min":0,"x_max":0,"o":"m 78 440 l 744 440 l 744 465 l 78 465 z m 78 201 l 744 201 l 744 226 l 78 226 z "},">":{"ha":824,"x_min":0,"x_max":0,"o":"m 17 639 l 761 333 l 17 28 l 17 0 l 806 328 l 806 339 l 17 667 z "},"?":{"ha":617,"x_min":0,"x_max":0,"o":"m 171 267 l 194 267 l 194 551 l 197 551 b 308 504 213 531 243 504 b 543 758 379 504 543 572 b 293 1011 543 896 457 1011 b 93 861 200 1011 93 965 b 168 796 93 813 132 796 b 244 858 221 796 244 811 b 215 939 244 899 215 906 b 288 992 215 964 238 992 b 374 778 356 992 374 940 b 283 528 374 615 356 528 b 194 593 243 528 217 560 l 171 593 z m 83 85 b 182 -14 83 31 128 -14 b 281 85 236 -14 281 31 b 182 183 281 139 236 183 b 83 85 128 183 83 139 z "},"@":{"ha":1157,"x_min":0,"x_max":0,"o":"m 792 733 l 767 646 b 635 749 758 675 740 749 b 326 411 492 749 326 596 b 519 218 326 254 457 218 b 696 342 629 218 674 300 b 818 218 699 310 707 218 b 1097 603 958 218 1097 407 b 638 1011 1097 832 915 1011 b 60 469 319 1011 60 768 b 596 -19 60 176 300 -18 b 996 117 742 -19 881 29 l 978 140 b 604 8 856 46 718 8 b 114 467 315 8 114 208 b 642 983 114 725 328 983 b 1068 600 913 983 1068 804 b 864 275 1068 428 953 275 b 803 336 824 275 803 299 b 815 410 803 360 810 390 l 910 733 z m 742 617 b 681 385 742 561 703 438 b 543 254 653 315 615 254 b 450 385 450 254 450 357 b 653 714 450 539 540 714 b 742 617 689 714 742 694 z "},"A":{"ha":1054,"x_min":0,"x_max":0,"o":"m -36 0 l 228 0 l 228 19 l 104 19 l 258 392 l 592 392 l 753 19 l 624 19 l 624 0 l 1090 0 l 1090 19 l 971 19 l 533 1028 l 496 1028 l 82 19 l -36 19 z m 585 411 l 265 411 l 421 790 z "},"B":{"ha":951,"x_min":0,"x_max":0,"o":"m 176 19 l 49 19 l 49 0 l 258 0 b 375 -1 297 0 336 -1 b 490 -4 413 -3 451 -4 b 876 268 629 -4 876 53 b 544 531 876 465 688 519 l 544 536 b 825 763 633 549 825 603 b 489 993 825 940 635 993 b 374 992 451 993 413 992 b 258 989 335 990 297 989 l 49 989 l 49 969 l 176 969 z m 378 521 l 458 521 b 650 283 642 521 650 344 b 458 15 650 58 576 15 b 378 19 432 15 403 17 z m 378 969 b 439 974 399 971 418 974 b 615 740 578 974 615 903 b 435 540 615 639 601 540 l 378 540 z "},"C":{"ha":1003,"x_min":0,"x_max":0,"o":"m 913 989 l 890 989 b 847 960 885 964 872 960 b 590 1011 797 960 706 1011 b 71 492 353 1011 71 806 b 590 -21 71 206 318 -21 b 853 29 708 -21 810 29 b 899 0 879 29 889 22 l 921 0 l 921 294 l 899 294 b 592 -1 865 146 757 -1 b 297 489 383 -1 297 106 b 592 992 297 781 322 992 b 894 706 792 992 854 829 l 913 706 z "},"D":{"ha":1132,"x_min":0,"x_max":0,"o":"m 172 19 l 44 19 l 44 0 l 172 0 b 331 -1 225 0 278 -1 b 488 -4 382 -3 435 -4 b 1065 494 701 -4 1065 89 b 456 993 1065 903 706 993 b 314 992 408 993 361 992 b 172 989 267 990 219 989 l 44 989 l 44 969 l 172 969 z m 374 969 b 460 974 392 972 424 974 b 839 481 782 974 839 779 b 447 15 839 297 807 15 b 374 19 422 15 400 17 z "},"E":{"ha":1003,"x_min":0,"x_max":0,"o":"m 51 969 l 179 969 l 179 19 l 51 19 l 51 0 l 939 0 l 939 304 l 921 304 b 608 19 883 143 779 19 l 381 19 l 381 521 l 474 521 b 668 315 601 521 643 424 l 686 315 l 686 747 l 668 747 b 458 540 642 622 594 540 l 381 540 l 381 969 l 601 969 b 864 751 785 969 844 813 l 882 751 l 882 989 l 51 989 z "},"F":{"ha":951,"x_min":0,"x_max":0,"o":"m 179 19 l 51 19 l 51 0 l 510 0 l 510 19 l 381 19 l 381 503 l 474 503 b 668 297 601 503 643 406 l 686 297 l 686 729 l 668 729 b 458 522 642 604 594 522 l 381 522 l 381 969 l 590 969 b 854 751 740 969 801 883 l 872 751 l 872 989 l 51 989 l 51 969 l 179 969 z "},"G":{"ha":1081,"x_min":0,"x_max":0,"o":"m 908 989 l 885 989 b 842 960 875 967 867 960 b 585 1011 793 960 697 1011 b 65 492 347 1011 65 806 b 585 -21 65 206 313 -21 b 901 64 756 -21 813 64 b 947 32 924 64 943 54 l 972 32 l 972 350 l 1063 350 l 1063 369 l 633 369 l 633 350 l 776 350 l 776 297 b 586 -1 776 129 756 -1 b 292 450 378 -1 292 113 b 586 992 292 683 275 992 b 888 706 746 993 840 886 l 908 706 z "},"H":{"ha":1157,"x_min":0,"x_max":0,"o":"m 49 969 l 176 969 l 176 19 l 49 19 l 49 0 l 506 0 l 506 19 l 378 19 l 378 494 l 779 494 l 779 19 l 651 19 l 651 0 l 1108 0 l 1108 19 l 981 19 l 981 969 l 1108 969 l 1108 989 l 651 989 l 651 969 l 779 969 l 779 514 l 378 514 l 378 969 l 506 969 l 506 989 l 49 989 z "},"I":{"ha":565,"x_min":0,"x_max":0,"o":"m 54 969 l 182 969 l 182 19 l 54 19 l 54 0 l 511 0 l 511 19 l 383 19 l 383 969 l 511 969 l 511 989 l 54 989 z "},"J":{"ha":694,"x_min":0,"x_max":0,"o":"m 528 969 l 656 969 l 656 989 l 199 989 l 199 969 l 326 969 l 326 90 b 267 -1 326 56 326 -1 b 206 54 251 -1 206 -1 b 225 161 206 69 225 136 b 140 228 225 221 169 228 b 31 129 31 228 31 146 b 250 -21 31 10 153 -21 b 528 283 524 -21 528 193 z "},"K":{"ha":1081,"x_min":0,"x_max":0,"o":"m 58 969 l 186 969 l 186 19 l 58 19 l 58 0 l 515 0 l 515 19 l 388 19 l 388 506 l 399 506 l 768 19 l 643 19 l 643 0 l 1107 0 l 1107 19 l 1021 19 l 540 644 l 850 969 l 961 969 l 961 989 l 683 989 l 683 969 l 824 969 l 399 525 l 388 525 l 388 969 l 515 969 l 515 989 l 58 989 z "},"L":{"ha":1003,"x_min":0,"x_max":0,"o":"m 64 969 l 192 969 l 192 19 l 64 19 l 64 0 l 944 0 l 944 314 l 926 314 b 622 19 879 97 743 19 l 393 19 l 393 969 l 521 969 l 521 989 l 64 989 z "},"M":{"ha":1286,"x_min":0,"x_max":0,"o":"m 47 969 l 175 969 l 175 19 l 47 19 l 47 0 l 325 0 l 325 19 l 197 19 l 197 969 l 200 969 l 543 0 l 565 0 l 907 969 l 910 969 l 910 19 l 783 19 l 783 0 l 1239 0 l 1239 19 l 1111 19 l 1111 969 l 1239 969 l 1239 989 l 892 989 l 647 297 l 644 297 l 404 989 l 47 989 z "},"N":{"ha":1029,"x_min":0,"x_max":0,"o":"m 47 969 l 175 969 l 175 19 l 47 19 l 47 0 l 325 0 l 325 19 l 197 19 l 197 890 l 200 890 l 825 0 l 863 0 l 863 969 l 990 969 l 990 989 l 713 989 l 713 969 l 840 969 l 840 328 l 838 328 l 375 989 l 47 989 z "},"O":{"ha":1157,"x_min":0,"x_max":0,"o":"m 58 492 b 579 -21 58 206 306 -21 b 1099 496 856 -21 1099 218 b 579 1011 1099 813 836 1011 b 58 492 340 1011 58 806 z m 285 492 b 579 992 285 783 319 992 b 872 504 858 992 872 764 b 579 -1 872 215 853 -1 b 285 492 371 -1 285 106 z "},"P":{"ha":900,"x_min":0,"x_max":0,"o":"m 376 471 l 433 471 b 869 733 731 471 869 589 b 458 993 869 947 625 993 b 317 992 411 993 364 992 b 175 989 269 990 222 989 l 47 989 l 47 969 l 175 969 l 175 19 l 47 19 l 47 0 l 504 0 l 504 19 l 376 19 z m 376 969 b 431 974 392 971 411 974 b 643 725 592 974 643 886 b 419 490 643 554 578 490 l 376 490 z "},"Q":{"ha":1157,"x_min":0,"x_max":0,"o":"m 1021 -278 b 878 -194 925 -278 915 -261 b 711 -76 843 -132 803 -85 b 532 -17 596 -65 569 -56 b 579 -21 546 -19 561 -21 b 1099 496 856 -21 1099 218 b 579 1011 1099 813 836 1011 b 58 492 340 1011 58 806 b 499 -12 58 235 258 25 b 581 -121 522 -39 556 -78 b 1021 -297 664 -265 718 -282 z m 285 492 b 579 992 285 783 319 992 b 872 504 858 992 872 764 b 579 -1 872 215 853 -1 b 285 492 371 -1 285 106 z "},"R":{"ha":1003,"x_min":0,"x_max":0,"o":"m 176 19 l 49 19 l 49 0 l 506 0 l 506 19 l 378 19 l 378 521 l 469 521 b 656 224 642 521 649 375 b 871 -21 660 126 667 -21 b 1033 44 972 -21 996 7 l 1019 57 b 942 11 1001 39 979 11 b 860 282 876 11 878 50 b 556 533 844 482 736 501 l 556 540 b 829 756 681 550 829 607 b 489 993 829 940 635 993 b 374 992 451 993 413 992 b 258 989 335 990 297 989 l 49 989 l 49 969 l 176 969 z m 378 969 b 439 974 399 971 418 974 b 615 740 578 974 615 903 b 435 540 615 639 601 540 l 378 540 z "},"S":{"ha":900,"x_min":0,"x_max":0,"o":"m 88 0 l 110 0 b 153 32 119 25 128 32 b 425 -21 190 32 311 -21 b 808 317 651 -21 808 135 b 213 818 808 685 213 561 b 442 992 213 900 294 992 b 711 725 622 992 668 853 l 729 725 l 729 989 l 707 989 b 668 960 699 967 693 960 b 443 1011 624 960 565 1011 b 108 725 247 1011 108 872 b 681 214 108 326 681 490 b 436 -1 681 142 631 -1 b 221 82 381 -1 306 -1 b 108 308 144 157 117 264 l 88 308 z "},"T":{"ha":979,"x_min":0,"x_max":0,"o":"m 389 19 l 261 19 l 261 0 l 718 0 l 718 19 l 590 19 l 590 969 l 640 969 b 907 735 778 969 853 924 l 925 735 l 925 989 l 54 989 l 54 735 l 72 735 b 339 969 126 924 201 969 l 389 969 z "},"U":{"ha":1081,"x_min":0,"x_max":0,"o":"m 44 969 l 174 969 l 174 321 b 588 -21 174 156 225 -21 b 921 318 921 -21 921 228 l 921 969 l 1050 969 l 1050 989 l 772 989 l 772 969 l 899 969 l 899 317 b 600 -1 899 236 899 -1 b 375 346 393 -1 375 174 l 375 969 l 503 969 l 503 989 l 44 989 z "},"V":{"ha":1003,"x_min":0,"x_max":0,"o":"m -25 969 l 93 969 l 476 -39 l 517 -39 l 908 969 l 1028 969 l 1028 989 l 763 989 l 763 969 l 888 969 l 594 217 l 307 969 l 440 969 l 440 989 l -25 989 z "},"W":{"ha":1440,"x_min":0,"x_max":0,"o":"m -17 969 l 99 969 l 443 -39 l 483 -39 l 717 619 l 719 619 l 947 -39 l 988 -39 l 1344 969 l 1457 969 l 1457 989 l 1201 989 l 1201 969 l 1321 969 l 1064 236 l 1061 236 l 810 969 l 939 969 l 939 989 l 524 989 l 524 969 l 599 969 l 707 651 l 561 238 l 558 238 l 308 969 l 410 969 l 410 989 l -17 989 z "},"X":{"ha":1054,"x_min":0,"x_max":0,"o":"m 14 969 l 125 969 l 436 458 l 165 19 l 51 19 l 51 0 l 315 0 l 315 19 l 190 19 l 449 438 l 701 19 l 578 19 l 578 0 l 1054 0 l 1054 19 l 939 19 l 581 606 l 808 969 l 917 969 l 917 989 l 665 989 l 665 969 l 785 969 l 568 625 l 365 969 l 479 969 l 479 989 l 14 989 z "},"Y":{"ha":978,"x_min":0,"x_max":0,"o":"m -22 969 l 88 969 l 410 407 l 410 19 l 282 19 l 282 0 l 740 0 l 740 19 l 611 19 l 611 460 l 879 969 l 1000 969 l 1000 989 l 735 989 l 735 969 l 856 969 l 600 485 l 317 969 l 426 969 l 426 989 l -22 989 z "},"Z":{"ha":951,"x_min":0,"x_max":0,"o":"m 47 0 l 882 0 l 882 314 l 864 314 b 535 19 817 97 681 19 l 283 19 l 844 989 l 125 989 l 125 757 l 143 757 b 413 969 200 886 261 969 l 606 969 z "},"[":{"ha":360,"x_min":0,"x_max":0,"o":"m 135 -389 l 304 -389 l 304 -361 l 163 -361 l 163 961 l 304 961 l 304 989 l 135 989 z "},"\\":{"ha":411,"x_min":0,"x_max":0,"o":"m 32 997 l 4 989 l 379 -8 l 407 0 z "},"]":{"ha":360,"x_min":0,"x_max":0,"o":"m 225 989 l 56 989 l 56 961 l 197 961 l 197 -361 l 56 -361 l 56 -389 l 225 -389 z "},"^":{"ha":824,"x_min":0,"x_max":0,"o":"m 165 424 l 196 424 l 411 936 l 628 424 l 657 424 l 418 989 l 406 989 z "},"_":{"ha":694,"x_min":0,"x_max":0,"o":"m 0 -147 l 694 -147 l 694 -104 l 0 -104 z "},"‘":{"ha":386,"x_min":0,"x_max":0,"o":"m 274 1011 b 76 742 194 961 76 886 b 204 576 76 636 133 576 b 310 675 253 576 310 606 b 214 774 310 746 253 774 b 156 760 194 774 172 771 b 135 817 146 768 135 788 b 283 993 135 883 193 931 z "},"a":{"ha":721,"x_min":0,"x_max":0,"o":"m 692 35 b 639 8 676 18 663 8 b 593 75 599 8 593 40 l 593 419 b 339 615 593 576 479 615 b 101 465 218 615 101 563 b 182 394 101 403 144 394 b 267 451 207 394 267 394 b 258 528 267 464 258 518 b 338 596 258 579 294 596 b 424 497 406 596 424 546 l 424 413 b 242 286 424 343 392 332 b 58 119 150 258 58 228 b 256 -19 58 13 167 -19 b 429 76 354 -19 400 1 l 432 76 b 579 -19 443 18 486 -19 b 704 22 622 -19 678 -18 z m 424 161 b 326 13 424 53 374 13 b 236 144 240 13 236 101 b 383 311 236 256 314 278 b 421 344 408 324 418 333 l 424 344 z "},"b":{"ha":824,"x_min":0,"x_max":0,"o":"m 135 19 l 43 19 l 43 0 l 301 0 l 301 103 l 304 103 b 468 -19 333 28 388 -19 b 771 299 649 -19 771 133 b 468 615 771 428 682 615 b 307 499 386 615 335 574 l 304 499 l 304 1001 l 43 1001 l 43 982 l 135 982 z m 304 297 b 457 596 304 421 319 596 b 583 297 551 596 583 521 b 468 0 583 117 571 0 b 304 297 313 0 304 181 z "},"c":{"ha":668,"x_min":0,"x_max":0,"o":"m 49 299 b 392 -19 49 15 319 -19 b 638 154 565 -19 621 90 l 618 161 b 410 0 613 126 561 0 b 236 307 249 0 236 164 b 386 596 236 463 254 596 b 471 536 435 596 471 574 b 450 439 471 521 450 454 b 536 378 450 389 493 378 b 626 461 593 378 626 400 b 390 615 626 554 528 615 b 49 299 169 615 49 435 z "},"d":{"ha":824,"x_min":0,"x_max":0,"o":"m 689 1001 l 425 1001 l 425 982 l 519 982 l 519 499 l 517 499 b 356 615 489 574 438 615 b 53 299 142 615 53 428 b 356 -19 53 133 175 -19 b 519 103 436 -19 490 28 l 522 103 l 522 0 l 781 0 l 781 19 l 689 19 z m 519 297 b 356 0 519 181 511 0 b 240 297 253 0 240 117 b 367 596 240 521 272 596 b 519 297 504 596 519 421 z "},"e":{"ha":694,"x_min":0,"x_max":0,"o":"m 646 349 b 372 615 646 538 500 615 b 49 300 192 615 49 460 b 392 -19 49 101 199 -19 b 638 154 553 -19 619 86 l 618 161 b 413 0 614 129 560 0 b 236 286 247 0 236 154 l 236 349 z m 236 368 b 368 596 240 463 243 596 b 458 461 458 596 458 500 l 458 368 z "},"f":{"ha":489,"x_min":0,"x_max":0,"o":"m 53 576 l 144 576 l 144 19 l 53 19 l 53 0 l 421 0 l 421 19 l 314 19 l 314 576 l 429 576 l 429 596 l 314 596 l 314 811 b 393 992 314 907 314 992 b 453 943 424 992 453 976 b 442 871 453 933 442 883 b 515 800 442 822 467 800 b 594 876 558 800 594 833 b 421 1011 594 972 504 1011 b 144 596 144 1011 144 778 l 53 596 z "},"g":{"ha":746,"x_min":0,"x_max":0,"o":"m 244 99 b 142 167 182 99 142 121 b 196 246 142 188 142 211 b 365 213 232 231 292 213 b 615 406 547 213 615 314 b 560 540 615 481 582 517 b 618 572 596 567 607 572 b 642 533 638 572 638 560 b 703 483 644 515 651 483 b 764 543 740 483 764 506 b 683 615 764 586 738 615 b 547 551 622 615 594 594 b 363 615 504 585 446 615 b 92 406 194 615 92 519 b 179 258 92 325 146 283 b 53 90 63 194 53 110 b 254 -60 53 -28 179 -60 l 254 -62 b 69 -240 171 -85 69 -142 b 333 -410 69 -290 101 -410 b 663 -122 539 -410 663 -265 b 397 99 663 50 536 99 z m 356 232 b 244 426 292 232 244 251 b 356 596 244 513 261 596 b 463 410 454 596 463 517 b 356 232 463 257 421 232 z m 194 -218 b 282 -62 194 -144 226 -107 l 426 -62 b 567 -197 483 -62 567 -87 b 367 -386 567 -307 472 -386 b 194 -218 226 -386 194 -285 z "},"h":{"ha":875,"x_min":0,"x_max":0,"o":"m 51 0 l 400 0 l 400 19 l 313 19 l 313 317 b 481 571 313 486 392 571 b 568 458 533 571 568 535 l 568 19 l 482 19 l 482 0 l 831 0 l 831 19 l 738 19 l 738 411 b 544 608 738 531 664 608 b 315 463 379 608 331 494 l 313 463 l 313 1001 l 51 1001 l 51 982 l 143 982 l 143 19 l 51 19 z "},"i":{"ha":438,"x_min":0,"x_max":0,"o":"m 50 576 l 143 576 l 143 19 l 50 19 l 50 0 l 406 0 l 406 19 l 313 19 l 313 596 l 50 596 z m 129 894 b 228 796 129 840 174 796 b 326 894 282 796 326 840 b 228 993 326 949 282 993 b 129 894 174 993 129 949 z "},"j":{"ha":463,"x_min":0,"x_max":0,"o":"m 165 -294 b 115 -379 165 -367 149 -379 b 71 -335 71 -379 71 -353 b 82 -264 71 -315 82 -285 b 8 -203 82 -225 54 -203 b -69 -281 -32 -203 -69 -222 b 103 -399 -69 -354 6 -399 b 335 -60 276 -399 335 -251 l 335 596 l 72 596 l 72 576 l 165 576 z m 151 894 b 250 796 151 840 196 796 b 349 894 304 796 349 840 b 250 993 349 949 304 993 b 151 894 196 993 151 949 z "},"k":{"ha":824,"x_min":0,"x_max":0,"o":"m 49 982 l 140 982 l 140 19 l 49 19 l 49 0 l 396 0 l 396 19 l 310 19 l 310 319 l 317 319 l 551 19 l 451 19 l 451 0 l 819 0 l 819 19 l 765 19 l 447 429 l 603 576 l 692 576 l 692 596 l 474 596 l 474 576 l 575 576 l 317 339 l 310 339 l 310 1001 l 49 1001 z "},"l":{"ha":438,"x_min":0,"x_max":0,"o":"m 50 982 l 143 982 l 143 19 l 50 19 l 50 0 l 406 0 l 406 19 l 313 19 l 313 1001 l 50 1001 z "},"m":{"ha":1235,"x_min":0,"x_max":0,"o":"m 58 576 l 150 576 l 150 19 l 58 19 l 58 0 l 401 0 l 401 19 l 319 19 l 319 358 b 361 522 319 450 331 486 b 458 571 388 553 424 571 b 543 461 501 571 543 542 l 543 19 l 460 19 l 460 0 l 794 0 l 794 19 l 713 19 l 713 429 b 843 571 713 529 801 571 b 936 450 910 571 936 528 l 936 19 l 854 19 l 854 0 l 1197 0 l 1197 19 l 1106 19 l 1106 399 b 894 608 1106 465 1106 608 b 707 497 851 608 763 596 b 513 608 679 549 643 608 b 319 497 392 608 342 533 l 317 497 l 317 596 l 58 596 z "},"n":{"ha":875,"x_min":0,"x_max":0,"o":"m 58 0 l 407 0 l 407 19 l 319 19 l 319 317 b 488 571 319 486 399 571 b 575 458 540 571 575 535 l 575 19 l 489 19 l 489 0 l 838 0 l 838 19 l 744 19 l 744 411 b 551 608 744 531 671 608 b 319 457 386 608 335 492 l 317 457 l 317 596 l 58 596 l 58 576 l 150 576 l 150 19 l 58 19 z "},"o":{"ha":772,"x_min":0,"x_max":0,"o":"m 386 615 b 47 299 194 615 47 469 b 386 -19 47 126 194 -19 b 725 299 578 -19 725 126 b 386 615 725 469 578 615 z m 386 0 b 235 299 242 0 235 149 b 386 596 235 447 242 596 b 538 299 531 596 538 447 b 386 0 538 149 531 0 z "},"p":{"ha":824,"x_min":0,"x_max":0,"o":"m 135 -369 l 43 -369 l 43 -389 l 399 -389 l 399 -369 l 304 -369 l 304 100 l 307 100 b 468 -19 332 35 383 -19 b 771 299 649 -19 771 133 b 468 615 771 428 682 615 b 304 493 388 615 333 574 l 301 493 l 301 596 l 43 596 l 43 576 l 135 576 z m 304 297 b 457 596 304 421 319 596 b 583 297 551 596 583 521 b 468 0 583 117 571 0 b 304 297 313 0 304 181 z "},"q":{"ha":824,"x_min":0,"x_max":0,"o":"m 689 576 l 781 576 l 781 596 l 522 596 l 522 493 l 519 493 b 356 615 490 574 436 615 b 53 299 142 615 53 428 b 356 -19 53 133 175 -19 b 517 100 440 -19 492 35 l 519 100 l 519 -369 l 425 -369 l 425 -389 l 781 -389 l 781 -369 l 689 -369 z m 519 297 b 356 0 519 181 511 0 b 240 297 253 0 240 117 b 367 596 240 521 272 596 b 519 297 504 596 519 421 z "},"r":{"ha":617,"x_min":0,"x_max":0,"o":"m 57 576 l 147 576 l 147 19 l 57 19 l 57 0 l 426 0 l 426 19 l 317 19 l 317 375 b 435 567 317 493 396 567 b 467 533 467 567 467 535 b 457 464 467 528 457 475 b 542 401 457 415 500 401 b 626 490 600 401 626 435 b 496 608 626 564 572 608 b 317 479 404 608 350 550 l 314 479 l 314 596 l 57 596 z "},"s":{"ha":592,"x_min":0,"x_max":0,"o":"m 61 0 l 81 0 b 106 19 86 14 90 19 b 300 -19 139 19 232 -19 b 538 181 422 -19 538 58 b 385 360 538 268 485 325 l 267 400 b 165 500 172 432 165 474 b 288 596 165 564 226 596 b 472 429 403 596 435 519 l 490 429 l 490 599 l 471 599 b 444 581 468 590 464 581 b 297 615 422 581 367 615 b 69 417 163 615 69 525 b 196 256 69 318 144 275 l 308 214 b 418 107 407 178 418 142 b 294 0 418 0 326 0 b 81 201 165 0 124 97 l 61 201 z "},"t":{"ha":514,"x_min":0,"x_max":0,"o":"m 140 596 l 47 596 l 47 576 l 140 576 l 140 149 b 335 -19 140 82 140 -19 b 519 126 404 -19 496 0 l 499 131 b 383 8 483 74 453 8 b 310 111 319 8 310 57 l 310 576 l 472 576 l 472 596 l 310 596 l 310 775 b 225 756 282 764 253 756 b 140 775 197 756 168 764 z "},"u":{"ha":849,"x_min":0,"x_max":0,"o":"m 38 576 l 131 576 l 131 175 b 331 -12 131 40 201 -12 b 538 113 414 -12 507 32 l 540 113 l 540 0 l 799 0 l 799 19 l 707 19 l 707 596 l 446 596 l 446 576 l 538 576 l 538 218 b 394 29 538 117 481 29 b 300 156 324 29 300 86 l 300 596 l 38 596 z "},"v":{"ha":643,"x_min":0,"x_max":0,"o":"m -19 576 l 57 576 l 333 -39 l 344 -39 l 590 576 l 654 576 l 654 596 l 460 596 l 460 576 l 567 576 l 415 192 l 244 576 l 344 576 l 344 596 l -19 596 z "},"w":{"ha":1029,"x_min":0,"x_max":0,"o":"m 317 -39 l 326 -39 l 519 482 l 725 -39 l 735 -39 l 963 576 l 1031 576 l 1031 596 l 843 596 l 843 576 l 940 576 l 807 215 l 664 576 l 757 576 l 757 596 l 410 596 l 410 576 l 481 576 l 508 511 l 399 215 l 256 576 l 346 576 l 346 596 l -8 596 l -8 576 l 75 576 z "},"x":{"ha":694,"x_min":0,"x_max":0,"o":"m 4 576 l 75 576 l 282 253 l 114 19 l 21 19 l 21 0 l 247 0 l 247 19 l 140 19 l 294 235 l 432 19 l 336 19 l 336 0 l 690 0 l 690 19 l 633 19 l 415 364 l 568 576 l 646 576 l 646 596 l 450 596 l 450 576 l 543 576 l 401 382 l 283 576 l 368 576 l 368 596 l 4 596 z "},"y":{"ha":668,"x_min":0,"x_max":0,"o":"m 246 576 l 343 576 l 343 596 l -11 596 l -11 576 l 64 576 l 325 -50 l 265 -199 b 126 -375 239 -265 194 -375 b 99 -344 111 -375 99 -365 b 117 -268 99 -317 117 -301 b 43 -210 117 -229 78 -210 b -46 -286 -6 -210 -46 -233 b 97 -399 -46 -357 15 -399 b 253 -278 172 -399 215 -358 b 614 576 328 -119 408 133 l 678 576 l 678 596 l 476 596 l 476 576 l 592 576 l 415 175 z "},"z":{"ha":643,"x_min":0,"x_max":0,"o":"m 47 0 l 590 0 l 606 192 l 590 192 b 418 19 563 107 535 19 l 249 19 l 585 596 l 89 596 l 68 431 l 83 431 b 261 576 126 528 161 576 l 385 576 z "},"{":{"ha":514,"x_min":0,"x_max":0,"o":"m 468 989 b 318 943 435 986 368 983 b 236 669 236 881 236 796 l 236 521 b 47 304 236 388 210 339 l 47 296 b 236 79 210 261 236 213 l 236 -69 b 318 -343 236 -196 236 -281 b 468 -389 368 -383 435 -386 l 468 -364 b 264 -110 265 -354 264 -217 l 264 -1 b 217 247 264 156 258 206 b 86 300 174 290 110 297 b 217 353 110 303 174 310 b 264 601 258 394 264 444 l 264 710 b 468 964 264 817 265 954 z "},"|":{"ha":308,"x_min":0,"x_max":0,"o":"m 140 -347 l 168 -347 l 168 1042 l 140 1042 z "},"}":{"ha":514,"x_min":0,"x_max":0,"o":"m 47 -389 b 197 -343 81 -386 147 -383 b 279 -69 279 -281 279 -196 l 279 79 b 468 296 279 213 306 261 l 468 304 b 279 521 306 339 279 388 l 279 669 b 197 943 279 796 279 881 b 47 989 147 983 81 986 l 47 964 b 251 710 250 954 251 817 l 251 601 b 299 353 251 444 257 394 b 429 300 342 310 406 303 b 299 247 406 297 342 290 b 251 -1 257 206 251 156 l 251 -110 b 47 -364 251 -217 250 -354 z "},"~":{"ha":824,"x_min":0,"x_max":0,"o":"m 776 444 b 619 285 747 356 700 285 b 506 317 592 285 567 293 l 333 382 b 213 411 314 389 256 411 b 22 225 78 411 40 288 l 47 225 b 204 383 65 278 97 383 b 325 353 246 383 294 365 l 494 288 b 614 257 571 258 593 257 b 801 444 743 257 783 386 z "},"¡":{"ha":411,"x_min":0,"x_max":0,"o":"m 219 322 l 192 322 l 125 -229 b 115 -315 119 -275 115 -303 b 206 -410 115 -371 151 -410 b 296 -315 260 -410 296 -371 b 286 -229 296 -303 292 -275 z m 304 517 b 206 615 304 571 260 615 b 107 517 151 615 107 571 b 206 418 107 463 151 418 b 304 517 260 418 304 463 z "},"¢":{"ha":722,"x_min":0,"x_max":0,"o":"m 247 -128 l 267 -132 l 303 -4 b 410 -19 349 -17 388 -19 b 656 154 583 -19 639 90 l 636 161 b 428 0 631 126 579 0 b 317 42 378 0 342 17 l 468 578 b 489 536 481 568 489 554 b 468 439 489 521 468 454 b 554 378 468 389 511 378 b 644 461 611 378 644 400 b 478 610 644 538 578 592 l 510 724 l 490 728 l 457 611 b 408 615 442 615 425 615 b 67 299 188 615 67 435 b 285 1 67 129 183 33 z m 301 61 b 254 307 258 121 254 218 b 404 596 254 463 272 596 b 450 586 422 596 439 593 z "},"£":{"ha":822,"x_min":0,"x_max":0,"o":"m 53 524 l 197 524 b 322 197 288 354 322 289 b 318 164 322 186 321 175 b 185 185 264 175 235 185 b 63 92 133 185 63 169 b 171 0 63 24 118 0 b 314 81 246 0 276 32 b 538 -19 379 32 446 -19 b 769 200 678 -19 736 121 l 751 206 b 571 140 718 153 710 140 b 339 161 467 140 408 150 b 349 258 344 199 349 231 b 329 524 349 315 333 486 l 544 524 l 544 543 l 331 543 b 324 726 325 571 324 696 b 490 992 324 849 347 992 b 574 926 546 992 574 958 b 561 826 574 890 561 846 b 642 764 561 764 622 764 b 726 836 693 764 726 779 b 481 1011 726 904 653 1011 b 136 715 314 1011 136 894 b 186 543 136 683 142 617 l 53 543 z m 300 93 b 171 19 265 47 240 19 b 82 90 124 19 82 47 b 161 165 82 138 118 165 b 300 93 203 165 231 156 z "},"⁄":{"ha":103,"x_min":0,"x_max":0,"o":"m -224 -7 l -196 -19 l 326 999 l 299 1011 z "},"¥":{"ha":772,"x_min":0,"x_max":0,"o":"m 314 19 l 186 19 l 186 0 l 638 0 l 638 19 l 508 19 l 508 390 l 757 390 l 757 414 l 510 414 l 561 560 l 757 560 l 757 583 l 568 583 l 703 969 l 819 969 l 819 989 l 558 989 l 558 969 l 679 969 l 492 446 l 274 969 l 383 969 l 383 989 l -47 989 l -47 969 l 61 969 l 233 583 l 67 583 l 67 560 l 243 560 l 308 414 l 67 414 l 67 390 l 314 390 z "},"ƒ":{"ha":772,"x_min":0,"x_max":0,"o":"m 89 472 l 261 472 b 231 -125 240 274 236 75 b 117 -369 226 -276 194 -369 b 69 -337 71 -369 69 -343 b 93 -256 69 -319 93 -275 b 29 -210 93 -225 61 -210 b -47 -278 -14 -210 -47 -233 b 100 -389 -47 -353 39 -389 b 350 -25 249 -389 296 -196 b 440 472 382 76 419 278 l 603 472 l 603 492 l 442 492 l 446 529 b 467 764 449 557 463 721 b 604 992 479 875 494 992 b 657 956 610 992 657 990 b 629 865 657 924 629 910 b 706 811 629 831 654 811 b 786 882 731 811 786 825 b 619 1011 786 975 694 1011 b 264 492 407 1011 297 750 l 89 492 z "},"§":{"ha":772,"x_min":0,"x_max":0,"o":"m 378 668 b 258 833 322 703 258 758 b 431 992 258 874 286 992 b 532 928 474 992 532 978 b 501 831 532 888 501 871 b 581 774 501 774 558 774 b 657 854 657 774 657 825 b 439 1011 657 954 561 1011 b 139 753 240 1011 139 872 b 222 572 139 660 182 611 b 89 339 182 543 89 463 b 222 118 89 235 131 176 l 411 4 b 538 -175 489 -43 538 -87 b 358 -369 538 -256 488 -369 b 231 -281 290 -369 231 -336 b 263 -182 231 -240 263 -224 b 188 -126 263 -139 219 -126 b 100 -204 128 -126 100 -154 b 354 -389 100 -264 147 -389 b 661 -108 554 -389 661 -224 b 547 108 661 -1 610 57 b 683 360 606 161 683 242 b 564 551 683 469 610 524 z m 161 440 b 238 561 161 494 199 526 b 501 392 317 503 413 447 b 600 247 558 356 600 311 b 531 119 600 175 554 139 l 453 171 l 286 275 b 161 440 231 310 161 365 z "},"¤":{"ha":772,"x_min":0,"x_max":0,"o":"m 89 217 l 107 199 l 196 288 b 385 214 222 265 283 214 b 575 288 446 214 519 235 l 665 199 l 683 217 l 594 306 b 668 496 664 382 668 465 b 594 686 668 525 664 607 l 683 775 l 665 793 l 575 704 b 386 778 522 750 456 778 b 196 704 314 778 250 751 l 107 793 l 89 775 l 178 686 b 104 496 131 635 104 563 b 176 306 104 451 115 375 z m 132 496 b 386 750 132 636 246 750 b 640 496 526 750 640 636 b 386 242 640 356 526 242 b 132 496 246 242 132 356 z "},"'":{"ha":386,"x_min":0,"x_max":0,"o":"m 181 589 l 206 589 l 242 885 b 247 943 244 904 247 925 b 193 1011 247 997 218 1011 b 139 943 168 1011 139 997 b 144 885 139 925 142 904 z "},"“":{"ha":643,"x_min":0,"x_max":0,"o":"m 258 1011 b 61 742 179 961 61 886 b 189 576 61 636 118 576 b 294 675 238 576 294 606 b 199 774 294 746 238 774 b 140 760 179 774 157 771 b 119 817 131 768 119 788 b 268 993 119 883 178 931 z m 546 1011 b 349 742 467 961 349 886 b 476 576 349 636 406 576 b 582 675 525 576 582 606 b 486 774 582 746 525 774 b 428 760 467 774 444 771 b 407 817 418 768 407 788 b 556 993 407 883 465 931 z "},"«":{"ha":617,"x_min":0,"x_max":0,"o":"m 301 494 b 65 299 232 479 65 444 b 301 103 65 156 224 119 l 306 119 b 196 299 236 138 196 165 b 306 478 196 449 254 464 z m 547 494 b 311 299 478 479 311 444 b 547 103 311 156 469 119 l 551 119 b 442 299 482 138 442 165 b 551 478 442 449 500 464 z "},"‹":{"ha":360,"x_min":0,"x_max":0,"o":"m 296 494 b 60 299 226 479 60 444 b 296 103 60 156 218 119 l 300 119 b 190 299 231 138 190 165 b 300 478 190 449 249 464 z "},"›":{"ha":360,"x_min":0,"x_max":0,"o":"m 64 103 b 300 299 133 118 300 153 b 64 494 300 442 142 478 l 60 478 b 169 299 129 460 169 432 b 60 119 169 149 111 133 z "},"–":{"ha":694,"x_min":0,"x_max":0,"o":"m 0 293 l 694 293 l 694 313 l 0 313 z "},"†":{"ha":772,"x_min":0,"x_max":0,"o":"m 293 926 b 338 811 293 899 297 890 b 375 644 375 735 375 710 b 258 664 339 644 290 644 b 139 725 239 676 181 725 b 47 635 86 725 47 683 b 135 544 47 590 82 544 b 231 589 181 544 193 567 b 375 625 289 624 319 626 b 264 300 374 508 367 364 b 375 4 301 271 375 213 l 375 -389 l 399 -389 l 399 4 b 510 300 399 213 472 271 b 399 625 407 364 400 508 b 542 589 453 626 483 624 b 638 544 579 567 592 544 b 725 635 690 544 725 590 b 633 725 725 683 686 725 b 514 664 592 725 533 676 b 399 644 482 644 433 644 b 436 811 399 710 399 735 b 481 926 476 890 481 899 b 388 1011 481 958 457 1011 b 293 926 317 1011 293 958 z "},"‡":{"ha":772,"x_min":0,"x_max":0,"o":"m 388 1011 b 293 926 317 1011 293 958 b 338 811 293 899 297 890 b 375 644 375 735 375 710 b 258 664 339 644 290 644 b 139 725 239 676 181 725 b 47 635 86 725 47 683 b 135 544 47 590 82 544 b 231 589 181 544 193 567 b 375 625 289 624 319 626 b 264 311 374 508 367 364 b 375 -3 367 258 374 114 b 231 33 319 -4 289 -1 b 135 78 193 56 181 78 b 47 -12 82 78 47 32 b 139 -103 47 -61 86 -103 b 258 -42 181 -103 239 -54 b 375 -22 290 -22 339 -22 b 338 -189 375 -87 375 -112 b 293 -304 297 -268 293 -276 b 388 -389 293 -336 317 -389 b 481 -304 457 -389 481 -336 b 436 -189 481 -276 476 -268 b 399 -22 399 -112 399 -87 b 514 -42 433 -22 482 -22 b 633 -103 533 -54 592 -103 b 725 -12 686 -103 725 -61 b 638 78 725 32 690 78 b 542 33 592 78 579 56 b 399 -3 483 -1 453 -4 b 510 311 400 114 407 258 b 399 625 407 364 400 508 b 542 589 453 626 483 624 b 638 544 579 567 592 544 b 725 635 690 544 725 590 b 633 725 725 683 686 725 b 514 664 592 725 533 676 b 399 644 482 644 433 644 b 436 811 399 710 399 735 b 481 926 476 890 481 899 b 388 1011 481 958 457 1011 z "},"·":{"ha":386,"x_min":0,"x_max":0,"o":"m 94 392 b 193 293 94 338 139 293 b 292 392 247 293 292 338 b 193 490 292 446 247 490 b 94 392 139 490 94 446 z "},"¶":{"ha":824,"x_min":0,"x_max":0,"o":"m 436 989 b 181 942 344 989 272 982 b 36 699 97 904 36 810 b 208 435 36 575 113 472 b 415 401 285 406 357 403 l 415 204 b 386 -112 415 128 415 -37 b 286 -214 351 -203 296 -214 b 274 -203 275 -214 274 -204 b 282 -175 274 -199 281 -179 b 294 -118 293 -143 294 -128 b 221 -67 294 -69 239 -67 b 132 -144 175 -67 132 -89 b 278 -257 132 -171 143 -257 b 538 -174 328 -257 438 -246 b 682 204 646 -93 682 35 l 682 969 l 775 969 l 775 989 z m 533 204 b 436 -175 533 -67 481 -133 b 278 -237 372 -235 311 -236 b 436 204 424 -204 436 -65 l 436 969 l 533 969 z "},"•":{"ha":694,"x_min":0,"x_max":0,"o":"m 100 494 b 347 247 100 358 211 247 b 594 494 483 247 594 358 b 347 742 594 631 483 742 b 100 494 211 742 100 631 z "},"‚":{"ha":386,"x_min":0,"x_max":0,"o":"m 113 -251 b 310 18 192 -201 310 -126 b 182 183 310 124 253 183 b 76 85 133 183 76 154 b 172 -14 76 14 133 -14 b 203 -11 182 -14 193 -12 b 231 0 213 -8 222 -6 b 251 -57 240 -8 251 -28 b 103 -233 251 -124 193 -171 z "},"„":{"ha":643,"x_min":0,"x_max":0,"o":"m 385 -251 b 582 18 464 -201 582 -126 b 454 183 582 124 525 183 b 349 85 406 183 349 154 b 444 -14 349 14 406 -14 b 475 -11 454 -14 465 -12 b 503 0 485 -8 494 -6 b 524 -57 513 -8 524 -28 b 375 -233 524 -124 465 -171 z m 97 -251 b 294 18 176 -201 294 -126 b 167 183 294 124 238 183 b 61 85 118 183 61 154 b 157 -14 61 14 118 -14 b 188 -11 167 -14 178 -12 b 215 0 197 -8 207 -6 b 236 -57 225 -8 236 -28 b 88 -233 236 -124 178 -171 z "},"”":{"ha":643,"x_min":0,"x_max":0,"o":"m 385 576 b 582 846 464 626 582 701 b 454 1011 582 951 525 1011 b 349 913 406 1011 349 982 b 444 814 349 842 406 814 b 503 828 464 814 486 817 b 524 771 513 819 524 800 b 375 594 524 704 465 657 z m 97 576 b 294 846 176 626 294 701 b 167 1011 294 951 238 1011 b 61 913 118 1011 61 982 b 157 814 61 842 118 814 b 215 828 176 814 199 817 b 236 771 225 819 236 800 b 88 594 236 704 178 657 z "},"»":{"ha":617,"x_min":0,"x_max":0,"o":"m 315 103 b 551 299 385 118 551 153 b 315 494 551 442 393 478 l 311 478 b 421 299 381 460 421 432 b 311 119 421 149 363 133 z m 69 103 b 306 299 139 118 306 153 b 69 494 306 442 147 478 l 65 478 b 175 299 135 460 175 432 b 65 119 175 149 117 133 z "},"…":{"ha":1389,"x_min":0,"x_max":0,"o":"m 133 85 b 232 -14 133 31 178 -14 b 331 85 286 -14 331 31 b 232 183 331 139 286 183 b 133 85 178 183 133 139 z m 596 85 b 694 -14 596 31 640 -14 b 793 85 749 -14 793 31 b 694 183 793 139 749 183 b 596 85 640 183 596 139 z m 1058 85 b 1157 -14 1058 31 1103 -14 b 1256 85 1211 -14 1256 31 b 1157 183 1256 139 1211 183 b 1058 85 1103 183 1058 139 z "},"‰":{"ha":1440,"x_min":0,"x_max":0,"o":"m 1156 0 b 1058 183 1058 0 1058 88 b 1156 367 1058 279 1058 367 b 1253 183 1253 367 1253 279 b 1156 0 1253 88 1253 0 z m 190 -7 l 218 -19 l 740 999 l 713 1011 z m 285 625 b 188 808 188 625 188 713 b 285 992 188 904 188 992 b 382 808 382 992 382 904 b 285 625 382 713 382 625 z m 1156 -19 b 1372 183 1272 -19 1372 63 b 1156 386 1372 304 1272 386 b 939 183 1039 386 939 304 b 1156 -19 939 63 1039 -19 z m 285 606 b 501 808 401 606 501 688 b 285 1011 501 929 401 1011 b 68 808 168 1011 68 929 b 285 606 68 688 168 606 z m 646 -19 b 863 183 763 -19 863 63 b 646 386 863 304 763 386 b 429 183 529 386 429 304 b 646 -19 429 63 529 -19 z m 646 0 b 549 183 549 0 549 88 b 646 367 549 279 549 367 b 743 183 743 367 743 279 b 646 0 743 88 743 0 z "},"¿":{"ha":617,"x_min":0,"x_max":0,"o":"m 446 335 l 422 335 l 422 50 l 419 50 b 308 97 404 71 374 97 b 74 -157 238 97 74 29 b 324 -410 74 -294 160 -410 b 524 -260 417 -410 524 -364 b 449 -194 524 -211 485 -194 b 372 -257 396 -194 372 -210 b 401 -337 372 -297 401 -304 b 329 -390 401 -362 379 -390 b 243 -176 261 -390 243 -339 b 333 74 243 -14 261 74 b 422 8 374 74 400 42 l 446 8 z m 533 517 b 435 615 533 571 489 615 b 336 517 381 615 336 571 b 435 418 336 463 381 418 b 533 517 489 418 533 463 z "},"`":{"ha":386,"x_min":0,"x_max":0,"o":"m 131 979 b 72 1022 121 999 108 1022 b 26 981 57 1022 26 1008 b 39 943 26 974 28 956 l 235 735 l 253 735 z "},"´":{"ha":386,"x_min":0,"x_max":0,"o":"m 133 735 l 151 735 l 347 943 b 360 981 358 956 360 974 b 314 1022 360 1008 329 1022 b 256 979 278 1022 265 999 z "},"ˆ":{"ha":386,"x_min":0,"x_max":0,"o":"m -8 735 l 8 735 l 193 911 l 378 735 l 394 735 l 244 1008 l 143 1008 z "},"˜":{"ha":386,"x_min":0,"x_max":0,"o":"m 13 828 b 51 856 21 847 39 856 b 276 799 96 856 221 799 b 410 960 361 799 399 911 l 390 960 b 335 896 389 951 372 896 b 114 951 317 896 140 951 b 43 926 94 951 60 940 b -24 790 17 904 7 875 l -4 790 z "},"¯":{"ha":386,"x_min":0,"x_max":0,"o":"m -31 850 l 417 850 l 417 892 l -31 892 z "},"˘":{"ha":386,"x_min":0,"x_max":0,"o":"m -4 989 b 193 772 -6 844 75 772 b 390 989 311 772 392 844 l 374 989 b 193 864 347 892 279 864 b 13 989 107 864 39 892 z "},"˙":{"ha":386,"x_min":0,"x_max":0,"o":"m 104 894 b 193 806 104 846 144 806 b 282 894 242 806 282 846 b 193 983 282 943 242 983 b 104 894 144 983 104 943 z "},"¨":{"ha":386,"x_min":0,"x_max":0,"o":"m -17 894 b 72 806 -17 846 24 806 b 161 894 121 806 161 846 b 72 983 161 943 121 983 b -17 894 24 983 -17 943 z m 225 894 b 314 806 225 846 265 806 b 403 894 363 806 403 846 b 314 983 403 943 363 983 b 225 894 265 983 225 943 z "},"˚":{"ha":386,"x_min":0,"x_max":0,"o":"m 339 874 b 193 1011 339 933 292 1011 b 47 874 94 1011 47 933 b 193 736 47 814 94 736 b 339 874 292 736 339 814 z m 193 996 b 258 874 247 996 258 951 b 193 751 258 796 247 751 b 128 874 139 751 128 796 b 193 996 128 951 139 996 z "},"¸":{"ha":386,"x_min":0,"x_max":0,"o":"m 114 -110 l 133 -129 b 185 -115 147 -121 164 -115 b 238 -207 236 -115 238 -168 b 172 -306 238 -251 226 -306 b 92 -275 136 -306 121 -294 l 79 -292 b 190 -333 117 -319 143 -333 b 347 -201 269 -333 347 -289 b 221 -83 347 -133 286 -83 b 149 -103 197 -83 169 -93 l 146 -100 l 243 0 l 215 0 z "},"˝":{"ha":386,"x_min":0,"x_max":0,"o":"m 218 735 l 236 735 l 432 943 b 444 981 443 956 444 974 b 399 1022 444 1008 414 1022 b 340 979 363 1022 350 999 z m 49 735 l 67 735 l 263 943 b 275 981 274 956 275 974 b 229 1022 275 1008 244 1022 b 171 979 193 1022 181 999 z "},"˛":{"ha":386,"x_min":0,"x_max":0,"o":"m 199 -58 b 92 -185 104 -108 92 -153 b 210 -278 92 -233 129 -278 b 338 -233 264 -278 285 -269 l 328 -217 b 267 -236 317 -225 303 -236 b 206 -171 206 -236 206 -181 b 338 0 206 -128 243 -81 l 308 0 z "},"ˇ":{"ha":386,"x_min":0,"x_max":0,"o":"m 394 1008 l 378 1008 l 193 832 l 8 1008 l -8 1008 l 142 735 l 243 735 z "},"—":{"ha":1389,"x_min":0,"x_max":0,"o":"m 181 293 l 1208 293 l 1208 313 l 181 313 z "},"Æ":{"ha":1363,"x_min":0,"x_max":0,"o":"m -43 0 l 201 0 l 201 19 l 64 19 l 354 521 l 615 521 l 615 19 l 488 19 l 488 0 l 1279 0 l 1279 304 l 1261 304 b 949 19 1224 143 1119 19 l 817 19 l 817 521 l 858 521 b 1053 315 986 521 1028 424 l 1071 315 l 1071 747 l 1053 747 b 843 540 1026 622 979 540 l 817 540 l 817 969 l 965 969 b 1228 751 1149 969 1208 813 l 1246 751 l 1246 989 l 460 989 l 460 969 l 589 969 l 40 19 l -43 19 z m 613 969 l 615 969 l 615 540 l 365 540 z "},"ª":{"ha":432,"x_min":0,"x_max":0,"o":"m 369 894 b 214 1011 369 928 369 1011 b 58 917 110 1011 58 968 b 107 872 58 889 78 872 b 168 917 139 872 168 875 b 163 958 168 922 163 951 b 210 996 163 993 193 996 b 260 949 240 996 260 981 l 260 889 b 222 838 260 861 249 844 l 154 818 b 31 714 47 788 31 756 b 171 625 31 643 104 625 b 265 679 238 625 257 663 b 357 625 271 658 294 625 b 440 658 414 625 425 640 l 428 671 b 394 644 422 661 411 644 b 369 688 374 644 369 672 z m 257 719 b 200 644 257 678 239 644 b 150 731 151 644 150 686 b 213 817 150 793 182 804 b 257 836 236 825 247 829 z "},"Ł":{"ha":1003,"x_min":0,"x_max":0,"o":"m 192 19 l 64 19 l 64 0 l 944 0 l 944 314 l 926 314 b 622 19 879 97 743 19 l 393 19 l 393 561 l 599 676 l 599 704 l 393 589 l 393 969 l 521 969 l 521 989 l 64 989 l 64 969 l 192 969 l 192 485 l 64 413 l 64 385 l 192 457 z "},"Ø":{"ha":1157,"x_min":0,"x_max":0,"o":"m 357 97 b 285 492 307 172 285 296 b 579 992 285 783 319 992 b 781 921 672 992 736 967 z m 796 904 b 872 504 867 817 872 667 b 579 -1 872 215 853 -1 b 371 78 486 -1 418 19 z m 258 -94 l 278 -104 l 349 35 b 579 -21 419 -1 499 -21 b 1099 496 856 -21 1099 218 b 821 951 1099 711 978 871 l 889 1085 l 869 1094 l 801 960 b 579 1011 731 993 654 1011 b 58 492 340 1011 58 806 b 331 46 58 297 172 131 z "},"Œ":{"ha":1518,"x_min":0,"x_max":0,"o":"m 1471 304 l 1453 304 b 1140 19 1415 143 1311 19 l 913 19 l 913 521 l 1006 521 b 1200 315 1133 521 1175 424 l 1218 315 l 1218 747 l 1200 747 b 990 540 1174 622 1126 540 l 913 540 l 913 969 l 1133 969 b 1396 751 1317 969 1376 813 l 1414 751 l 1414 989 l 844 989 b 718 993 803 989 760 992 b 592 997 676 996 635 997 b 68 483 326 997 68 776 b 593 -8 68 293 233 -8 b 701 -4 629 -8 665 -6 b 810 0 738 -1 774 0 l 1471 0 z m 711 24 b 593 11 686 18 635 11 b 294 486 371 11 294 129 b 590 978 294 739 310 978 b 711 965 613 978 672 972 z "},"º":{"ha":464,"x_min":0,"x_max":0,"o":"m 446 818 b 232 1011 446 925 344 1011 b 18 818 119 1011 18 925 b 232 625 18 711 119 625 b 446 818 344 625 446 711 z m 232 640 b 142 818 142 640 142 726 b 232 996 142 910 142 996 b 322 818 322 996 322 910 b 232 640 322 726 322 640 z "},"æ":{"ha":1029,"x_min":0,"x_max":0,"o":"m 43 119 b 240 -19 43 13 151 -19 b 433 136 394 -19 428 61 l 436 136 b 719 -19 483 24 588 -19 b 965 154 881 -19 947 86 l 946 161 b 740 0 942 129 888 0 b 586 286 597 0 586 154 l 586 349 l 974 349 b 706 615 974 538 828 615 b 540 554 644 615 586 592 b 332 615 496 589 446 615 b 94 465 211 615 94 563 b 175 394 94 403 138 394 b 260 451 200 394 260 394 b 251 528 260 464 251 518 b 331 596 251 579 288 596 b 417 514 411 596 417 538 l 417 413 b 226 286 417 343 385 332 b 43 119 135 258 43 228 z m 417 161 b 311 13 417 53 358 13 b 221 144 225 13 221 101 b 382 319 221 263 304 267 b 414 344 393 326 411 333 l 417 344 z m 586 368 b 696 596 590 463 593 596 b 786 461 786 596 786 500 l 786 368 z "},"ı":{"ha":438,"x_min":0,"x_max":0,"o":"m 50 576 l 143 576 l 143 19 l 50 19 l 50 0 l 406 0 l 406 19 l 313 19 l 313 596 l 50 596 z "},"ł":{"ha":438,"x_min":0,"x_max":0,"o":"m 143 499 l 50 444 l 50 417 l 143 471 l 143 19 l 50 19 l 50 0 l 406 0 l 406 19 l 313 19 l 313 569 l 406 624 l 406 651 l 313 597 l 313 1001 l 50 1001 l 50 982 l 143 982 z "},"ø":{"ha":772,"x_min":0,"x_max":0,"o":"m 506 525 b 538 299 535 468 538 383 b 386 0 538 149 531 0 b 269 68 325 0 289 26 z m 260 94 b 235 299 238 147 235 222 b 386 596 235 447 242 596 b 493 546 438 596 471 578 z m 163 -93 l 182 -101 l 240 13 b 386 -19 282 -8 332 -19 b 725 299 578 -19 725 126 b 535 582 725 422 649 532 l 592 692 l 572 700 l 515 590 b 386 615 475 607 432 615 b 47 299 194 615 47 469 b 222 22 47 181 117 75 z "},"œ":{"ha":1183,"x_min":0,"x_max":0,"o":"m 389 0 b 238 299 244 0 238 149 b 389 596 238 447 244 596 b 540 299 533 596 540 447 b 389 0 540 149 533 0 z m 1133 349 b 863 615 1133 538 988 615 b 633 515 771 615 690 575 b 389 615 575 576 488 615 b 50 299 197 615 50 469 b 389 -19 50 126 197 -19 b 629 75 483 -19 567 17 b 882 -19 692 14 781 -19 b 1125 154 1040 -19 1107 86 l 1106 161 b 900 0 1101 129 1047 0 b 724 286 735 0 724 154 l 724 349 z m 724 368 b 856 596 728 463 731 596 b 946 461 946 596 946 500 l 946 368 z "},"ß":{"ha":900,"x_min":0,"x_max":0,"o":"m 47 0 l 310 0 l 310 753 b 501 983 310 868 340 983 b 643 835 561 983 643 946 b 438 506 643 672 438 633 b 715 124 438 358 715 286 b 578 0 715 85 692 0 b 519 43 549 0 519 10 b 535 129 519 64 535 107 b 464 182 535 165 494 182 b 378 107 419 182 378 156 b 568 -19 378 8 489 -19 b 840 213 718 -19 840 83 b 569 594 840 406 569 458 b 671 844 569 667 671 713 b 458 1011 671 897 643 1011 b 219 922 371 1011 283 985 b 140 704 156 857 140 793 l 140 19 l 47 19 z "},"¬":{"ha":824,"x_min":0,"x_max":0,"o":"m 717 201 l 744 201 l 744 465 l 78 465 l 78 440 l 717 440 z "},"µ":{"ha":849,"x_min":0,"x_max":0,"o":"m 131 -389 l 300 -389 l 300 24 b 378 -8 322 1 344 -8 b 538 113 433 -8 510 43 l 540 113 l 540 0 l 799 0 l 799 19 l 707 19 l 707 596 l 446 596 l 446 576 l 538 576 l 538 218 b 394 29 538 117 481 29 b 300 156 324 29 300 86 l 300 596 l 38 596 l 38 576 l 131 576 z "},"™":{"ha":1363,"x_min":0,"x_max":0,"o":"m 257 463 l 186 463 l 186 447 l 444 447 l 444 463 l 374 463 l 374 974 b 535 844 435 974 506 971 l 550 844 l 550 989 l 81 989 l 81 844 l 96 844 b 257 974 125 971 196 974 z m 658 463 l 592 463 l 592 447 l 743 447 l 743 463 l 676 463 l 676 958 l 863 447 l 878 447 l 1064 958 l 1064 463 l 997 463 l 997 447 l 1247 447 l 1247 463 l 1181 463 l 1181 974 l 1247 974 l 1247 989 l 1056 989 l 922 621 l 790 989 l 592 989 l 592 974 l 658 974 z "},"Ð":{"ha":1132,"x_min":0,"x_max":0,"o":"m 172 19 l 44 19 l 44 0 l 172 0 b 331 -1 225 0 278 -1 b 488 -4 382 -3 435 -4 b 1065 494 701 -4 1065 89 b 456 993 1065 903 706 993 b 314 992 408 993 361 992 b 172 989 267 990 219 989 l 44 989 l 44 969 l 172 969 l 172 540 l 44 540 l 44 517 l 172 517 z m 374 969 b 460 974 392 972 424 974 b 839 481 782 974 839 779 b 447 15 839 297 807 15 b 374 19 422 15 400 17 l 374 517 l 579 517 l 579 540 l 374 540 z "},"½":{"ha":1158,"x_min":0,"x_max":0,"o":"m 265 -7 l 293 -19 l 815 999 l 788 1011 z m 204 424 l 124 424 l 124 404 l 396 404 l 396 424 l 317 424 l 317 1011 l 278 1011 b 83 883 221 954 154 919 l 93 865 b 204 924 126 879 143 888 z m 736 92 l 918 268 b 1011 442 1011 357 1011 419 b 821 607 1011 549 921 607 b 644 481 749 607 644 567 b 699 440 644 453 675 440 b 756 483 728 440 756 457 b 747 529 756 490 747 522 b 814 588 747 549 747 588 b 886 442 844 588 886 588 b 635 32 886 264 835 211 l 621 19 l 621 0 l 1021 0 l 1021 175 l 1001 175 b 864 92 992 92 947 92 z "},"±":{"ha":824,"x_min":0,"x_max":0,"o":"m 397 92 l 425 92 l 425 365 l 744 365 l 744 390 l 425 390 l 425 667 l 397 667 l 397 390 l 78 390 l 78 365 l 397 365 z m 78 0 l 744 0 l 744 25 l 78 25 z "},"Þ":{"ha":900,"x_min":0,"x_max":0,"o":"m 376 306 l 433 306 b 869 568 731 306 869 424 b 458 828 869 782 625 828 l 376 828 l 376 969 l 504 969 l 504 989 l 47 989 l 47 969 l 175 969 l 175 19 l 47 19 l 47 0 l 504 0 l 504 19 l 376 19 z m 376 804 b 431 808 392 806 411 808 b 643 560 592 808 643 721 b 419 325 643 389 578 325 l 376 325 z "},"¼":{"ha":1158,"x_min":0,"x_max":0,"o":"m 950 357 l 838 357 l 838 150 l 619 150 b 854 478 722 351 839 464 l 922 540 b 949 576 946 563 949 564 b 894 607 949 607 906 607 b 749 467 847 607 808 572 b 590 131 736 444 663 304 l 838 131 l 838 19 l 760 19 l 760 0 l 1025 0 l 1025 19 l 950 19 l 950 131 l 1025 131 l 1025 150 l 950 150 z m 204 424 l 124 424 l 124 404 l 396 404 l 396 424 l 317 424 l 317 1011 l 278 1011 b 83 883 221 954 154 919 l 93 865 b 204 924 126 879 143 888 z m 265 -7 l 293 -19 l 815 999 l 788 1011 z "},"÷":{"ha":824,"x_min":0,"x_max":0,"o":"m 78 321 l 744 321 l 744 346 l 78 346 z m 313 114 b 411 15 313 60 357 15 b 510 114 465 15 510 60 b 411 213 510 168 465 213 b 313 114 357 213 313 168 z m 313 553 b 411 454 313 499 357 454 b 510 553 465 454 510 499 b 411 651 510 607 465 651 b 313 553 357 651 313 607 z "},"¦":{"ha":308,"x_min":0,"x_max":0,"o":"m 140 -243 l 168 -243 l 168 243 l 140 243 z m 140 451 l 168 451 l 168 938 l 140 938 z "},"°":{"ha":556,"x_min":0,"x_max":0,"o":"m 90 824 b 278 636 90 719 174 636 b 465 824 382 636 465 719 b 278 1011 465 928 382 1011 b 90 824 174 1011 90 928 z m 118 824 b 278 983 118 913 189 983 b 438 824 367 983 438 913 b 278 664 438 735 367 664 b 118 824 189 664 118 735 z "},"þ":{"ha":824,"x_min":0,"x_max":0,"o":"m 135 -369 l 43 -369 l 43 -389 l 399 -389 l 399 -369 l 304 -369 l 304 100 l 307 100 b 468 -19 332 35 383 -19 b 771 299 649 -19 771 133 b 468 615 771 428 682 615 b 307 499 386 615 335 574 l 304 499 l 304 1001 l 43 1001 l 43 982 l 135 982 z m 304 297 b 457 596 304 421 319 596 b 583 297 551 596 583 521 b 468 0 583 117 571 0 b 304 297 313 0 304 181 z "},"¾":{"ha":1158,"x_min":0,"x_max":0,"o":"m 142 696 b 251 732 183 731 238 732 b 354 603 354 732 354 639 b 225 410 354 501 347 410 b 78 528 154 410 97 464 l 57 528 b 243 390 81 433 146 390 b 478 581 372 390 478 474 b 288 744 478 686 375 738 l 288 747 b 458 885 363 767 458 793 b 283 1011 458 979 356 1011 b 101 901 238 1011 101 999 b 154 854 101 854 151 854 b 211 900 171 854 211 863 b 203 949 211 907 203 940 b 258 992 203 985 235 992 b 339 896 310 992 339 961 b 272 763 339 850 329 778 l 178 738 b 131 714 161 733 146 724 z m 989 357 l 876 357 l 876 150 l 658 150 b 893 478 761 351 878 464 l 961 540 b 988 576 985 563 988 564 b 933 607 988 607 944 607 b 788 467 886 607 847 572 b 629 131 775 444 701 304 l 876 131 l 876 19 l 799 19 l 799 0 l 1064 0 l 1064 19 l 989 19 l 989 131 l 1064 131 l 1064 150 l 989 150 z m 304 -7 l 332 -19 l 854 999 l 826 1011 z "},"®":{"ha":681,"x_min":0,"x_max":0,"o":"m 83 753 b 340 496 83 611 199 496 b 599 753 482 496 599 611 b 340 1011 599 894 482 1011 b 83 753 199 1011 83 894 z m 260 629 l 224 629 l 224 624 l 350 624 l 350 629 l 315 629 l 315 767 l 340 767 b 392 685 388 767 389 726 b 450 618 393 658 394 618 b 496 636 478 618 485 625 l 492 639 b 469 626 486 635 481 626 b 447 701 453 626 453 638 b 364 771 443 757 414 761 l 364 772 b 439 832 399 775 439 790 b 346 897 439 882 386 897 b 282 896 325 897 303 896 l 224 896 l 224 890 l 260 890 z m 97 753 b 340 997 97 888 206 997 b 585 753 475 997 585 888 b 340 510 585 619 475 510 b 97 753 206 510 97 619 z m 315 890 b 332 892 321 890 326 892 b 381 828 371 892 381 872 b 331 772 381 799 376 772 l 315 772 z "},"−":{"ha":824,"x_min":0,"x_max":0,"o":"m 78 321 l 744 321 l 744 346 l 78 346 z "},"ð":{"ha":772,"x_min":0,"x_max":0,"o":"m 185 747 l 196 732 l 356 838 b 501 578 451 732 493 607 b 386 615 465 600 439 615 b 47 299 194 615 47 469 b 386 -19 47 126 194 -19 b 725 340 454 -19 725 8 b 408 871 725 550 622 724 l 564 974 l 553 989 l 392 883 b 183 989 333 921 285 947 l 172 969 b 343 851 246 932 299 897 z m 235 299 b 386 596 235 447 242 596 b 538 299 531 596 538 447 b 386 0 538 149 531 0 b 235 299 242 0 235 149 z "},"×":{"ha":824,"x_min":0,"x_max":0,"o":"m 700 26 l 718 46 l 431 333 l 718 621 l 700 640 l 411 351 l 122 640 l 104 621 l 392 333 l 104 46 l 122 26 l 411 315 z "},"©":{"ha":1157,"x_min":0,"x_max":0,"o":"m 63 496 b 578 -19 63 213 293 -19 b 1093 496 861 -19 1093 213 b 578 1011 1093 779 861 1011 b 63 496 293 1011 63 779 z m 90 496 b 578 983 90 764 308 983 b 1065 496 846 983 1065 764 b 578 8 1065 228 846 8 b 90 496 308 8 90 228 z m 793 383 l 779 383 b 597 207 760 294 696 207 b 421 476 472 207 421 274 b 597 800 421 700 444 800 b 776 629 717 800 754 704 l 788 629 l 788 797 l 774 797 b 750 781 771 783 764 781 b 596 811 719 781 665 811 b 285 501 454 811 285 689 b 596 196 285 331 433 196 b 753 226 667 196 728 226 b 779 208 768 226 774 222 l 793 208 z "},"Á":{"ha":1054,"x_min":0,"x_max":0,"o":"m -36 0 l 228 0 l 228 19 l 104 19 l 258 392 l 592 392 l 753 19 l 624 19 l 624 0 l 1090 0 l 1090 19 l 971 19 l 533 1028 l 496 1028 l 82 19 l -36 19 z m 585 411 l 265 411 l 421 790 z m 457 1058 l 475 1058 l 671 1267 b 683 1304 682 1279 683 1297 b 638 1346 683 1332 653 1346 b 579 1303 601 1346 589 1322 z "},"Â":{"ha":1054,"x_min":0,"x_max":0,"o":"m -36 0 l 228 0 l 228 19 l 104 19 l 258 392 l 592 392 l 753 19 l 624 19 l 624 0 l 1090 0 l 1090 19 l 971 19 l 533 1028 l 496 1028 l 82 19 l -36 19 z m 585 411 l 265 411 l 421 790 z m 315 1058 l 332 1058 l 517 1235 l 701 1058 l 718 1058 l 568 1332 l 467 1332 z "},"Ä":{"ha":1054,"x_min":0,"x_max":0,"o":"m -36 0 l 228 0 l 228 19 l 104 19 l 258 392 l 592 392 l 753 19 l 624 19 l 624 0 l 1090 0 l 1090 19 l 971 19 l 533 1028 l 496 1028 l 82 19 l -36 19 z m 585 411 l 265 411 l 421 790 z m 307 1190 b 396 1101 307 1142 347 1101 b 485 1190 444 1101 485 1142 b 396 1279 485 1239 444 1279 b 307 1190 347 1279 307 1239 z m 549 1190 b 638 1101 549 1142 589 1101 b 726 1190 686 1101 726 1142 b 638 1279 726 1239 686 1279 b 549 1190 589 1279 549 1239 z "},"À":{"ha":1054,"x_min":0,"x_max":0,"o":"m -36 0 l 228 0 l 228 19 l 104 19 l 258 392 l 592 392 l 753 19 l 624 19 l 624 0 l 1090 0 l 1090 19 l 971 19 l 533 1028 l 496 1028 l 82 19 l -36 19 z m 585 411 l 265 411 l 421 790 z m 454 1303 b 396 1346 444 1322 432 1346 b 350 1304 381 1346 350 1332 b 363 1267 350 1297 351 1279 l 558 1058 l 576 1058 z "},"Å":{"ha":1054,"x_min":0,"x_max":0,"o":"m -36 0 l 228 0 l 228 19 l 104 19 l 258 392 l 592 392 l 753 19 l 624 19 l 624 0 l 1090 0 l 1090 19 l 971 19 l 533 1028 l 496 1028 l 82 19 l -36 19 z m 585 411 l 265 411 l 421 790 z m 653 1190 b 507 1328 653 1250 606 1328 b 361 1190 408 1328 361 1250 b 507 1053 361 1131 408 1053 b 653 1190 606 1053 653 1131 z m 507 1313 b 572 1190 561 1313 572 1268 b 507 1068 572 1113 561 1068 b 442 1190 453 1068 442 1113 b 507 1313 442 1268 453 1313 z "},"Ã":{"ha":1054,"x_min":0,"x_max":0,"o":"m -36 0 l 228 0 l 228 19 l 104 19 l 258 392 l 592 392 l 753 19 l 624 19 l 624 0 l 1090 0 l 1090 19 l 971 19 l 533 1028 l 496 1028 l 82 19 l -36 19 z m 585 411 l 265 411 l 421 790 z m 336 1151 b 375 1179 344 1171 363 1179 b 600 1122 419 1179 544 1122 b 733 1283 685 1122 722 1235 l 714 1283 b 658 1219 713 1275 696 1219 b 438 1275 640 1219 464 1275 b 367 1250 418 1275 383 1264 b 300 1114 340 1228 331 1199 l 319 1114 z "},"Ç":{"ha":1003,"x_min":0,"x_max":0,"o":"m 921 294 l 899 294 b 592 -1 865 146 757 -1 b 297 450 383 -1 297 113 b 592 992 297 683 281 992 b 894 706 792 992 854 829 l 913 706 l 913 989 l 890 989 b 847 960 885 964 872 960 b 590 1011 797 960 706 1011 b 71 492 353 1011 71 806 b 533 -17 71 226 285 11 l 447 -110 l 467 -129 b 518 -115 481 -121 497 -115 b 571 -207 569 -115 571 -168 b 506 -306 571 -251 560 -306 b 425 -275 469 -306 454 -294 l 413 -292 b 524 -333 450 -319 476 -333 b 681 -201 603 -333 681 -289 b 554 -83 681 -133 619 -83 b 482 -103 531 -83 503 -93 l 479 -100 l 558 -21 l 590 -21 b 853 29 708 -21 810 29 b 899 0 879 29 889 22 l 921 0 z "},"É":{"ha":1003,"x_min":0,"x_max":0,"o":"m 51 969 l 179 969 l 179 19 l 51 19 l 51 0 l 939 0 l 939 304 l 921 304 b 608 19 883 143 779 19 l 381 19 l 381 521 l 474 521 b 668 315 601 521 643 424 l 686 315 l 686 747 l 668 747 b 458 540 642 622 594 540 l 381 540 l 381 969 l 601 969 b 864 751 785 969 844 813 l 882 751 l 882 989 l 51 989 z m 453 1058 l 471 1058 l 667 1267 b 679 1304 678 1279 679 1297 b 633 1346 679 1332 649 1346 b 575 1303 597 1346 585 1322 z "},"Ê":{"ha":1003,"x_min":0,"x_max":0,"o":"m 51 969 l 179 969 l 179 19 l 51 19 l 51 0 l 939 0 l 939 304 l 921 304 b 608 19 883 143 779 19 l 381 19 l 381 521 l 474 521 b 668 315 601 521 643 424 l 686 315 l 686 747 l 668 747 b 458 540 642 622 594 540 l 381 540 l 381 969 l 601 969 b 864 751 785 969 844 813 l 882 751 l 882 989 l 51 989 z m 311 1058 l 328 1058 l 513 1235 l 697 1058 l 714 1058 l 564 1332 l 463 1332 z "},"Ë":{"ha":1003,"x_min":0,"x_max":0,"o":"m 51 969 l 179 969 l 179 19 l 51 19 l 51 0 l 939 0 l 939 304 l 921 304 b 608 19 883 143 779 19 l 381 19 l 381 521 l 474 521 b 668 315 601 521 643 424 l 686 315 l 686 747 l 668 747 b 458 540 642 622 594 540 l 381 540 l 381 969 l 601 969 b 864 751 785 969 844 813 l 882 751 l 882 989 l 51 989 z m 303 1190 b 392 1101 303 1142 343 1101 b 481 1190 440 1101 481 1142 b 392 1279 481 1239 440 1279 b 303 1190 343 1279 303 1239 z m 544 1190 b 633 1101 544 1142 585 1101 b 722 1190 682 1101 722 1142 b 633 1279 722 1239 682 1279 b 544 1190 585 1279 544 1239 z "},"È":{"ha":1003,"x_min":0,"x_max":0,"o":"m 51 969 l 179 969 l 179 19 l 51 19 l 51 0 l 939 0 l 939 304 l 921 304 b 608 19 883 143 779 19 l 381 19 l 381 521 l 474 521 b 668 315 601 521 643 424 l 686 315 l 686 747 l 668 747 b 458 540 642 622 594 540 l 381 540 l 381 969 l 601 969 b 864 751 785 969 844 813 l 882 751 l 882 989 l 51 989 z m 450 1303 b 392 1346 440 1322 428 1346 b 346 1304 376 1346 346 1332 b 358 1267 346 1297 347 1279 l 554 1058 l 572 1058 z "},"Í":{"ha":565,"x_min":0,"x_max":0,"o":"m 54 969 l 182 969 l 182 19 l 54 19 l 54 0 l 511 0 l 511 19 l 383 19 l 383 969 l 511 969 l 511 989 l 54 989 z m 224 1058 l 242 1058 l 438 1267 b 450 1304 449 1279 450 1297 b 404 1346 450 1332 419 1346 b 346 1303 368 1346 356 1322 z "},"Î":{"ha":565,"x_min":0,"x_max":0,"o":"m 54 969 l 182 969 l 182 19 l 54 19 l 54 0 l 511 0 l 511 19 l 383 19 l 383 969 l 511 969 l 511 989 l 54 989 z m 82 1058 l 99 1058 l 283 1235 l 468 1058 l 485 1058 l 335 1332 l 233 1332 z "},"Ï":{"ha":565,"x_min":0,"x_max":0,"o":"m 54 969 l 182 969 l 182 19 l 54 19 l 54 0 l 511 0 l 511 19 l 383 19 l 383 969 l 511 969 l 511 989 l 54 989 z m 74 1190 b 163 1101 74 1142 114 1101 b 251 1190 211 1101 251 1142 b 163 1279 251 1239 211 1279 b 74 1190 114 1279 74 1239 z m 315 1190 b 404 1101 315 1142 356 1101 b 493 1190 453 1101 493 1142 b 404 1279 493 1239 453 1279 b 315 1190 356 1279 315 1239 z "},"Ì":{"ha":565,"x_min":0,"x_max":0,"o":"m 54 969 l 182 969 l 182 19 l 54 19 l 54 0 l 511 0 l 511 19 l 383 19 l 383 969 l 511 969 l 511 989 l 54 989 z m 221 1303 b 163 1346 211 1322 199 1346 b 117 1304 147 1346 117 1332 b 129 1267 117 1297 118 1279 l 325 1058 l 343 1058 z "},"Ñ":{"ha":1029,"x_min":0,"x_max":0,"o":"m 47 969 l 175 969 l 175 19 l 47 19 l 47 0 l 325 0 l 325 19 l 197 19 l 197 890 l 200 890 l 825 0 l 863 0 l 863 969 l 990 969 l 990 989 l 713 989 l 713 969 l 840 969 l 840 328 l 838 328 l 375 989 l 47 989 z m 335 1151 b 374 1179 343 1171 361 1179 b 599 1122 418 1179 543 1122 b 732 1283 683 1122 721 1235 l 713 1283 b 657 1219 711 1275 694 1219 b 436 1275 639 1219 463 1275 b 365 1250 417 1275 382 1264 b 299 1114 339 1228 329 1199 l 318 1114 z "},"Ó":{"ha":1157,"x_min":0,"x_max":0,"o":"m 58 492 b 579 -21 58 206 306 -21 b 1099 496 856 -21 1099 218 b 579 1011 1099 813 836 1011 b 58 492 340 1011 58 806 z m 285 492 b 579 992 285 783 319 992 b 872 504 858 992 872 764 b 579 -1 872 215 853 -1 b 285 492 371 -1 285 106 z m 519 1058 l 538 1058 l 733 1267 b 746 1304 744 1279 746 1297 b 700 1346 746 1332 715 1346 b 642 1303 664 1346 651 1322 z "},"Ô":{"ha":1157,"x_min":0,"x_max":0,"o":"m 58 492 b 579 -21 58 206 306 -21 b 1099 496 856 -21 1099 218 b 579 1011 1099 813 836 1011 b 58 492 340 1011 58 806 z m 285 492 b 579 992 285 783 319 992 b 872 504 858 992 872 764 b 579 -1 872 215 853 -1 b 285 492 371 -1 285 106 z m 378 1058 l 394 1058 l 579 1235 l 764 1058 l 781 1058 l 631 1332 l 529 1332 z "},"Ö":{"ha":1157,"x_min":0,"x_max":0,"o":"m 58 492 b 579 -21 58 206 306 -21 b 1099 496 856 -21 1099 218 b 579 1011 1099 813 836 1011 b 58 492 340 1011 58 806 z m 285 492 b 579 992 285 783 319 992 b 872 504 858 992 872 764 b 579 -1 872 215 853 -1 b 285 492 371 -1 285 106 z m 369 1190 b 458 1101 369 1142 410 1101 b 547 1190 507 1101 547 1142 b 458 1279 547 1239 507 1279 b 369 1190 410 1279 369 1239 z m 611 1190 b 700 1101 611 1142 651 1101 b 789 1190 749 1101 789 1142 b 700 1279 789 1239 749 1279 b 611 1190 651 1279 611 1239 z "},"Ò":{"ha":1157,"x_min":0,"x_max":0,"o":"m 58 492 b 579 -21 58 206 306 -21 b 1099 496 856 -21 1099 218 b 579 1011 1099 813 836 1011 b 58 492 340 1011 58 806 z m 285 492 b 579 992 285 783 319 992 b 872 504 858 992 872 764 b 579 -1 872 215 853 -1 b 285 492 371 -1 285 106 z m 517 1303 b 458 1346 507 1322 494 1346 b 413 1304 443 1346 413 1332 b 425 1267 413 1297 414 1279 l 621 1058 l 639 1058 z "},"Õ":{"ha":1157,"x_min":0,"x_max":0,"o":"m 58 492 b 579 -21 58 206 306 -21 b 1099 496 856 -21 1099 218 b 579 1011 1099 813 836 1011 b 58 492 340 1011 58 806 z m 285 492 b 579 992 285 783 319 992 b 872 504 858 992 872 764 b 579 -1 872 215 853 -1 b 285 492 371 -1 285 106 z m 399 1151 b 438 1179 407 1171 425 1179 b 663 1122 482 1179 607 1122 b 796 1283 747 1122 785 1235 l 776 1283 b 721 1219 775 1275 758 1219 b 500 1275 703 1219 526 1275 b 429 1250 481 1275 446 1264 b 363 1114 403 1228 393 1199 l 382 1114 z "},"Š":{"ha":900,"x_min":0,"x_max":0,"o":"m 88 0 l 110 0 b 153 32 119 25 128 32 b 425 -21 190 32 311 -21 b 808 317 651 -21 808 135 b 213 818 808 685 213 561 b 442 992 213 900 294 992 b 711 725 622 992 668 853 l 729 725 l 729 989 l 707 989 b 668 960 699 967 693 960 b 443 1011 624 960 565 1011 b 108 725 247 1011 108 872 b 681 214 108 326 681 490 b 436 -1 681 142 631 -1 b 221 82 381 -1 306 -1 b 108 308 144 157 117 264 l 88 308 z m 651 1332 l 635 1332 l 450 1156 l 265 1332 l 249 1332 l 399 1058 l 500 1058 z "},"Ú":{"ha":1081,"x_min":0,"x_max":0,"o":"m 44 969 l 174 969 l 174 321 b 588 -21 174 156 225 -21 b 921 318 921 -21 921 228 l 921 969 l 1050 969 l 1050 989 l 772 989 l 772 969 l 899 969 l 899 317 b 600 -1 899 236 899 -1 b 375 346 393 -1 375 174 l 375 969 l 503 969 l 503 989 l 44 989 z m 522 1058 l 540 1058 l 736 1267 b 749 1304 747 1279 749 1297 b 703 1346 749 1332 718 1346 b 644 1303 667 1346 654 1322 z "},"Û":{"ha":1081,"x_min":0,"x_max":0,"o":"m 44 969 l 174 969 l 174 321 b 588 -21 174 156 225 -21 b 921 318 921 -21 921 228 l 921 969 l 1050 969 l 1050 989 l 772 989 l 772 969 l 899 969 l 899 317 b 600 -1 899 236 899 -1 b 375 346 393 -1 375 174 l 375 969 l 503 969 l 503 989 l 44 989 z m 381 1058 l 397 1058 l 582 1235 l 767 1058 l 783 1058 l 633 1332 l 532 1332 z "},"Ü":{"ha":1081,"x_min":0,"x_max":0,"o":"m 44 969 l 174 969 l 174 321 b 588 -21 174 156 225 -21 b 921 318 921 -21 921 228 l 921 969 l 1050 969 l 1050 989 l 772 989 l 772 969 l 899 969 l 899 317 b 600 -1 899 236 899 -1 b 375 346 393 -1 375 174 l 375 969 l 503 969 l 503 989 l 44 989 z m 372 1190 b 461 1101 372 1142 413 1101 b 550 1190 510 1101 550 1142 b 461 1279 550 1239 510 1279 b 372 1190 413 1279 372 1239 z m 614 1190 b 703 1101 614 1142 654 1101 b 792 1190 751 1101 792 1142 b 703 1279 792 1239 751 1279 b 614 1190 654 1279 614 1239 z "},"Ù":{"ha":1081,"x_min":0,"x_max":0,"o":"m 44 969 l 174 969 l 174 321 b 588 -21 174 156 225 -21 b 921 318 921 -21 921 228 l 921 969 l 1050 969 l 1050 989 l 772 989 l 772 969 l 899 969 l 899 317 b 600 -1 899 236 899 -1 b 375 346 393 -1 375 174 l 375 969 l 503 969 l 503 989 l 44 989 z m 519 1303 b 461 1346 510 1322 497 1346 b 415 1304 446 1346 415 1332 b 428 1267 415 1297 417 1279 l 624 1058 l 642 1058 z "},"Ý":{"ha":978,"x_min":0,"x_max":0,"o":"m -22 969 l 88 969 l 410 407 l 410 19 l 282 19 l 282 0 l 740 0 l 740 19 l 611 19 l 611 460 l 879 969 l 1000 969 l 1000 989 l 735 989 l 735 969 l 856 969 l 600 485 l 317 969 l 426 969 l 426 989 l -22 989 z m 471 1058 l 489 1058 l 685 1267 b 697 1304 696 1279 697 1297 b 651 1346 697 1332 667 1346 b 593 1303 615 1346 603 1322 z "},"Ÿ":{"ha":978,"x_min":0,"x_max":0,"o":"m -22 969 l 88 969 l 410 407 l 410 19 l 282 19 l 282 0 l 740 0 l 740 19 l 611 19 l 611 460 l 879 969 l 1000 969 l 1000 989 l 735 989 l 735 969 l 856 969 l 600 485 l 317 969 l 426 969 l 426 989 l -22 989 z m 321 1190 b 410 1101 321 1142 361 1101 b 499 1190 458 1101 499 1142 b 410 1279 499 1239 458 1279 b 321 1190 361 1279 321 1239 z m 563 1190 b 651 1101 563 1142 603 1101 b 740 1190 700 1101 740 1142 b 651 1279 740 1239 700 1279 b 563 1190 603 1279 563 1239 z "},"Ž":{"ha":951,"x_min":0,"x_max":0,"o":"m 47 0 l 882 0 l 882 314 l 864 314 b 535 19 817 97 681 19 l 283 19 l 844 989 l 125 989 l 125 757 l 143 757 b 413 969 200 886 261 969 l 606 969 z m 678 1332 l 661 1332 l 476 1156 l 292 1332 l 275 1332 l 425 1058 l 526 1058 z "},"á":{"ha":721,"x_min":0,"x_max":0,"o":"m 692 35 b 639 8 676 18 663 8 b 593 75 599 8 593 40 l 593 419 b 339 615 593 576 479 615 b 101 465 218 615 101 563 b 182 394 101 403 144 394 b 267 451 207 394 267 394 b 258 528 267 464 258 518 b 338 596 258 579 294 596 b 424 497 406 596 424 546 l 424 413 b 242 286 424 343 392 332 b 58 119 150 258 58 228 b 256 -19 58 13 167 -19 b 429 76 354 -19 400 1 l 432 76 b 579 -19 443 18 486 -19 b 704 22 622 -19 678 -18 z m 424 161 b 326 13 424 53 374 13 b 236 144 240 13 236 101 b 383 311 236 256 314 278 b 421 344 408 324 418 333 l 424 344 z m 301 735 l 319 735 l 515 943 b 528 981 526 956 528 974 b 482 1022 528 1008 497 1022 b 424 979 446 1022 433 999 z "},"â":{"ha":721,"x_min":0,"x_max":0,"o":"m 692 35 b 639 8 676 18 663 8 b 593 75 599 8 593 40 l 593 419 b 339 615 593 576 479 615 b 101 465 218 615 101 563 b 182 394 101 403 144 394 b 267 451 207 394 267 394 b 258 528 267 464 258 518 b 338 596 258 579 294 596 b 424 497 406 596 424 546 l 424 413 b 242 286 424 343 392 332 b 58 119 150 258 58 228 b 256 -19 58 13 167 -19 b 429 76 354 -19 400 1 l 432 76 b 579 -19 443 18 486 -19 b 704 22 622 -19 678 -18 z m 424 161 b 326 13 424 53 374 13 b 236 144 240 13 236 101 b 383 311 236 256 314 278 b 421 344 408 324 418 333 l 424 344 z m 160 735 l 176 735 l 361 911 l 546 735 l 563 735 l 413 1008 l 311 1008 z "},"ä":{"ha":721,"x_min":0,"x_max":0,"o":"m 692 35 b 639 8 676 18 663 8 b 593 75 599 8 593 40 l 593 419 b 339 615 593 576 479 615 b 101 465 218 615 101 563 b 182 394 101 403 144 394 b 267 451 207 394 267 394 b 258 528 267 464 258 518 b 338 596 258 579 294 596 b 424 497 406 596 424 546 l 424 413 b 242 286 424 343 392 332 b 58 119 150 258 58 228 b 256 -19 58 13 167 -19 b 429 76 354 -19 400 1 l 432 76 b 579 -19 443 18 486 -19 b 704 22 622 -19 678 -18 z m 424 161 b 326 13 424 53 374 13 b 236 144 240 13 236 101 b 383 311 236 256 314 278 b 421 344 408 324 418 333 l 424 344 z m 151 894 b 240 806 151 846 192 806 b 329 894 289 806 329 846 b 240 983 329 943 289 983 b 151 894 192 983 151 943 z m 393 894 b 482 806 393 846 433 806 b 571 894 531 806 571 846 b 482 983 571 943 531 983 b 393 894 433 983 393 943 z "},"à":{"ha":721,"x_min":0,"x_max":0,"o":"m 692 35 b 639 8 676 18 663 8 b 593 75 599 8 593 40 l 593 419 b 339 615 593 576 479 615 b 101 465 218 615 101 563 b 182 394 101 403 144 394 b 267 451 207 394 267 394 b 258 528 267 464 258 518 b 338 596 258 579 294 596 b 424 497 406 596 424 546 l 424 413 b 242 286 424 343 392 332 b 58 119 150 258 58 228 b 256 -19 58 13 167 -19 b 429 76 354 -19 400 1 l 432 76 b 579 -19 443 18 486 -19 b 704 22 622 -19 678 -18 z m 424 161 b 326 13 424 53 374 13 b 236 144 240 13 236 101 b 383 311 236 256 314 278 b 421 344 408 324 418 333 l 424 344 z m 299 979 b 240 1022 289 999 276 1022 b 194 981 225 1022 194 1008 b 207 943 194 974 196 956 l 403 735 l 421 735 z "},"å":{"ha":721,"x_min":0,"x_max":0,"o":"m 692 35 b 639 8 676 18 663 8 b 593 75 599 8 593 40 l 593 419 b 339 615 593 576 479 615 b 101 465 218 615 101 563 b 182 394 101 403 144 394 b 267 451 207 394 267 394 b 258 528 267 464 258 518 b 338 596 258 579 294 596 b 424 497 406 596 424 546 l 424 413 b 242 286 424 343 392 332 b 58 119 150 258 58 228 b 256 -19 58 13 167 -19 b 429 76 354 -19 400 1 l 432 76 b 579 -19 443 18 486 -19 b 704 22 622 -19 678 -18 z m 424 161 b 326 13 424 53 374 13 b 236 144 240 13 236 101 b 383 311 236 256 314 278 b 421 344 408 324 418 333 l 424 344 z m 507 874 b 361 1011 507 933 460 1011 b 215 874 263 1011 215 933 b 361 736 215 814 263 736 b 507 874 460 736 507 814 z m 361 996 b 426 874 415 996 426 951 b 361 751 426 796 415 751 b 296 874 307 751 296 796 b 361 996 296 951 307 996 z "},"ã":{"ha":721,"x_min":0,"x_max":0,"o":"m 692 35 b 639 8 676 18 663 8 b 593 75 599 8 593 40 l 593 419 b 339 615 593 576 479 615 b 101 465 218 615 101 563 b 182 394 101 403 144 394 b 267 451 207 394 267 394 b 258 528 267 464 258 518 b 338 596 258 579 294 596 b 424 497 406 596 424 546 l 424 413 b 242 286 424 343 392 332 b 58 119 150 258 58 228 b 256 -19 58 13 167 -19 b 429 76 354 -19 400 1 l 432 76 b 579 -19 443 18 486 -19 b 704 22 622 -19 678 -18 z m 424 161 b 326 13 424 53 374 13 b 236 144 240 13 236 101 b 383 311 236 256 314 278 b 421 344 408 324 418 333 l 424 344 z m 181 828 b 219 856 189 847 207 856 b 444 799 264 856 389 799 b 578 960 529 799 567 911 l 558 960 b 503 896 557 951 540 896 b 282 951 485 896 308 951 b 211 926 263 951 228 940 b 144 790 185 904 175 875 l 164 790 z "},"ç":{"ha":668,"x_min":0,"x_max":0,"o":"m 283 -129 b 335 -115 297 -121 314 -115 b 388 -207 386 -115 388 -168 b 322 -306 388 -251 376 -306 b 242 -275 286 -306 271 -294 l 229 -292 b 340 -333 267 -319 293 -333 b 497 -201 419 -333 497 -289 b 371 -83 497 -133 436 -83 b 299 -103 347 -83 319 -93 l 296 -100 l 376 -19 l 392 -19 b 638 154 565 -19 621 90 l 618 161 b 410 0 613 126 561 0 b 236 307 249 0 236 164 b 386 596 236 463 254 596 b 471 536 435 596 471 574 b 450 439 471 521 450 454 b 536 378 450 389 493 378 b 626 461 593 378 626 400 b 390 615 626 554 528 615 b 49 299 163 615 49 431 b 351 -15 49 53 251 -7 l 264 -110 z "},"é":{"ha":694,"x_min":0,"x_max":0,"o":"m 646 349 b 372 615 646 538 500 615 b 49 300 192 615 49 460 b 392 -19 49 101 199 -19 b 638 154 553 -19 619 86 l 618 161 b 413 0 614 129 560 0 b 236 286 247 0 236 154 l 236 349 z m 236 368 b 368 596 240 463 243 596 b 458 461 458 596 458 500 l 458 368 z m 288 735 l 306 735 l 501 943 b 514 981 513 956 514 974 b 468 1022 514 1008 483 1022 b 410 979 432 1022 419 999 z "},"ê":{"ha":694,"x_min":0,"x_max":0,"o":"m 646 349 b 372 615 646 538 500 615 b 49 300 192 615 49 460 b 392 -19 49 101 199 -19 b 638 154 553 -19 619 86 l 618 161 b 413 0 614 129 560 0 b 236 286 247 0 236 154 l 236 349 z m 236 368 b 368 596 240 463 243 596 b 458 461 458 596 458 500 l 458 368 z m 146 735 l 163 735 l 347 911 l 532 735 l 549 735 l 399 1008 l 297 1008 z "},"ë":{"ha":694,"x_min":0,"x_max":0,"o":"m 646 349 b 372 615 646 538 500 615 b 49 300 192 615 49 460 b 392 -19 49 101 199 -19 b 638 154 553 -19 619 86 l 618 161 b 413 0 614 129 560 0 b 236 286 247 0 236 154 l 236 349 z m 236 368 b 368 596 240 463 243 596 b 458 461 458 596 458 500 l 458 368 z m 138 894 b 226 806 138 846 178 806 b 315 894 275 806 315 846 b 226 983 315 943 275 983 b 138 894 178 983 138 943 z m 379 894 b 468 806 379 846 419 806 b 557 894 517 806 557 846 b 468 983 557 943 517 983 b 379 894 419 983 379 943 z "},"è":{"ha":694,"x_min":0,"x_max":0,"o":"m 646 349 b 372 615 646 538 500 615 b 49 300 192 615 49 460 b 392 -19 49 101 199 -19 b 638 154 553 -19 619 86 l 618 161 b 413 0 614 129 560 0 b 236 286 247 0 236 154 l 236 349 z m 236 368 b 368 596 240 463 243 596 b 458 461 458 596 458 500 l 458 368 z m 285 979 b 226 1022 275 999 263 1022 b 181 981 211 1022 181 1008 b 193 943 181 974 182 956 l 389 735 l 407 735 z "},"í":{"ha":438,"x_min":0,"x_max":0,"o":"m 50 576 l 143 576 l 143 19 l 50 19 l 50 0 l 406 0 l 406 19 l 313 19 l 313 596 l 50 596 z m 160 735 l 178 735 l 374 943 b 386 981 385 956 386 974 b 340 1022 386 1008 356 1022 b 282 979 304 1022 292 999 z "},"î":{"ha":438,"x_min":0,"x_max":0,"o":"m 50 576 l 143 576 l 143 19 l 50 19 l 50 0 l 406 0 l 406 19 l 313 19 l 313 596 l 50 596 z m 18 735 l 35 735 l 219 911 l 404 735 l 421 735 l 271 1008 l 169 1008 z "},"ï":{"ha":438,"x_min":0,"x_max":0,"o":"m 50 576 l 143 576 l 143 19 l 50 19 l 50 0 l 406 0 l 406 19 l 313 19 l 313 596 l 50 596 z m 10 894 b 99 806 10 846 50 806 b 188 894 147 806 188 846 b 99 983 188 943 147 983 b 10 894 50 983 10 943 z m 251 894 b 340 806 251 846 292 806 b 429 894 389 806 429 846 b 340 983 429 943 389 983 b 251 894 292 983 251 943 z "},"ì":{"ha":438,"x_min":0,"x_max":0,"o":"m 50 576 l 143 576 l 143 19 l 50 19 l 50 0 l 406 0 l 406 19 l 313 19 l 313 596 l 50 596 z m 157 979 b 99 1022 147 999 135 1022 b 53 981 83 1022 53 1008 b 65 943 53 974 54 956 l 261 735 l 279 735 z "},"ñ":{"ha":875,"x_min":0,"x_max":0,"o":"m 58 0 l 407 0 l 407 19 l 319 19 l 319 317 b 488 571 319 486 399 571 b 575 458 540 571 575 535 l 575 19 l 489 19 l 489 0 l 838 0 l 838 19 l 744 19 l 744 411 b 551 608 744 531 671 608 b 319 457 386 608 335 492 l 317 457 l 317 596 l 58 596 l 58 576 l 150 576 l 150 19 l 58 19 z m 257 828 b 296 856 265 847 283 856 b 521 799 340 856 465 799 b 654 960 606 799 643 911 l 635 960 b 579 896 633 951 617 896 b 358 951 561 896 385 951 b 288 926 339 951 304 940 b 221 790 261 904 251 875 l 240 790 z "},"ó":{"ha":772,"x_min":0,"x_max":0,"o":"m 386 615 b 47 299 194 615 47 469 b 386 -19 47 126 194 -19 b 725 299 578 -19 725 126 b 386 615 725 469 578 615 z m 386 0 b 235 299 242 0 235 149 b 386 596 235 447 242 596 b 538 299 531 596 538 447 b 386 0 538 149 531 0 z m 326 735 l 344 735 l 540 943 b 553 981 551 956 553 974 b 507 1022 553 1008 522 1022 b 449 979 471 1022 458 999 z "},"ô":{"ha":772,"x_min":0,"x_max":0,"o":"m 386 615 b 47 299 194 615 47 469 b 386 -19 47 126 194 -19 b 725 299 578 -19 725 126 b 386 615 725 469 578 615 z m 386 0 b 235 299 242 0 235 149 b 386 596 235 447 242 596 b 538 299 531 596 538 447 b 386 0 538 149 531 0 z m 185 735 l 201 735 l 386 911 l 571 735 l 588 735 l 438 1008 l 336 1008 z "},"ö":{"ha":772,"x_min":0,"x_max":0,"o":"m 386 615 b 47 299 194 615 47 469 b 386 -19 47 126 194 -19 b 725 299 578 -19 725 126 b 386 615 725 469 578 615 z m 386 0 b 235 299 242 0 235 149 b 386 596 235 447 242 596 b 538 299 531 596 538 447 b 386 0 538 149 531 0 z m 176 894 b 265 806 176 846 217 806 b 354 894 314 806 354 846 b 265 983 354 943 314 983 b 176 894 217 983 176 943 z m 418 894 b 507 806 418 846 458 806 b 596 894 556 806 596 846 b 507 983 596 943 556 983 b 418 894 458 983 418 943 z "},"ò":{"ha":772,"x_min":0,"x_max":0,"o":"m 386 615 b 47 299 194 615 47 469 b 386 -19 47 126 194 -19 b 725 299 578 -19 725 126 b 386 615 725 469 578 615 z m 386 0 b 235 299 242 0 235 149 b 386 596 235 447 242 596 b 538 299 531 596 538 447 b 386 0 538 149 531 0 z m 324 979 b 265 1022 314 999 301 1022 b 219 981 250 1022 219 1008 b 232 943 219 974 221 956 l 428 735 l 446 735 z "},"õ":{"ha":772,"x_min":0,"x_max":0,"o":"m 386 615 b 47 299 194 615 47 469 b 386 -19 47 126 194 -19 b 725 299 578 -19 725 126 b 386 615 725 469 578 615 z m 386 0 b 235 299 242 0 235 149 b 386 596 235 447 242 596 b 538 299 531 596 538 447 b 386 0 538 149 531 0 z m 206 828 b 244 856 214 847 232 856 b 469 799 289 856 414 799 b 603 960 554 799 592 911 l 583 960 b 528 896 582 951 565 896 b 307 951 510 896 333 951 b 236 926 288 951 253 940 b 169 790 210 904 200 875 l 189 790 z "},"š":{"ha":592,"x_min":0,"x_max":0,"o":"m 61 0 l 81 0 b 106 19 86 14 90 19 b 300 -19 139 19 232 -19 b 538 181 422 -19 538 58 b 385 360 538 268 485 325 l 267 400 b 165 500 172 432 165 474 b 288 596 165 564 226 596 b 472 429 403 596 435 519 l 490 429 l 490 599 l 471 599 b 444 581 468 590 464 581 b 297 615 422 581 367 615 b 69 417 163 615 69 525 b 196 256 69 318 144 275 l 308 214 b 418 107 407 178 418 142 b 294 0 418 0 326 0 b 81 201 165 0 124 97 l 61 201 z m 497 1008 l 481 1008 l 296 832 l 111 1008 l 94 1008 l 244 735 l 346 735 z "},"ú":{"ha":849,"x_min":0,"x_max":0,"o":"m 38 576 l 131 576 l 131 175 b 331 -12 131 40 201 -12 b 538 113 414 -12 507 32 l 540 113 l 540 0 l 799 0 l 799 19 l 707 19 l 707 596 l 446 596 l 446 576 l 538 576 l 538 218 b 394 29 538 117 481 29 b 300 156 324 29 300 86 l 300 596 l 38 596 z m 365 735 l 383 735 l 579 943 b 592 981 590 956 592 974 b 546 1022 592 1008 561 1022 b 488 979 510 1022 497 999 z "},"û":{"ha":849,"x_min":0,"x_max":0,"o":"m 38 576 l 131 576 l 131 175 b 331 -12 131 40 201 -12 b 538 113 414 -12 507 32 l 540 113 l 540 0 l 799 0 l 799 19 l 707 19 l 707 596 l 446 596 l 446 576 l 538 576 l 538 218 b 394 29 538 117 481 29 b 300 156 324 29 300 86 l 300 596 l 38 596 z m 224 735 l 240 735 l 425 911 l 610 735 l 626 735 l 476 1008 l 375 1008 z "},"ü":{"ha":849,"x_min":0,"x_max":0,"o":"m 38 576 l 131 576 l 131 175 b 331 -12 131 40 201 -12 b 538 113 414 -12 507 32 l 540 113 l 540 0 l 799 0 l 799 19 l 707 19 l 707 596 l 446 596 l 446 576 l 538 576 l 538 218 b 394 29 538 117 481 29 b 300 156 324 29 300 86 l 300 596 l 38 596 z m 210 894 b 299 806 210 846 250 806 b 388 894 347 806 388 846 b 299 983 388 943 347 983 b 210 894 250 983 210 943 z m 451 894 b 540 806 451 846 492 806 b 629 894 589 806 629 846 b 540 983 629 943 589 983 b 451 894 492 983 451 943 z "},"ù":{"ha":849,"x_min":0,"x_max":0,"o":"m 38 576 l 131 576 l 131 175 b 331 -12 131 40 201 -12 b 538 113 414 -12 507 32 l 540 113 l 540 0 l 799 0 l 799 19 l 707 19 l 707 596 l 446 596 l 446 576 l 538 576 l 538 218 b 394 29 538 117 481 29 b 300 156 324 29 300 86 l 300 596 l 38 596 z m 363 979 b 304 1022 353 999 340 1022 b 258 981 289 1022 258 1008 b 271 943 258 974 260 956 l 467 735 l 485 735 z "},"ý":{"ha":668,"x_min":0,"x_max":0,"o":"m 246 576 l 343 576 l 343 596 l -11 596 l -11 576 l 64 576 l 325 -50 l 265 -199 b 126 -375 239 -265 194 -375 b 99 -344 111 -375 99 -365 b 117 -268 99 -317 117 -301 b 43 -210 117 -229 78 -210 b -46 -286 -6 -210 -46 -233 b 97 -399 -46 -357 15 -399 b 253 -278 172 -399 215 -358 b 614 576 328 -119 408 133 l 678 576 l 678 596 l 476 596 l 476 576 l 592 576 l 415 175 z m 308 735 l 326 735 l 522 943 b 535 981 533 956 535 974 b 489 1022 535 1008 504 1022 b 431 979 453 1022 440 999 z "},"ÿ":{"ha":668,"x_min":0,"x_max":0,"o":"m 246 576 l 343 576 l 343 596 l -11 596 l -11 576 l 64 576 l 325 -50 l 265 -199 b 126 -375 239 -265 194 -375 b 99 -344 111 -375 99 -365 b 117 -268 99 -317 117 -301 b 43 -210 117 -229 78 -210 b -46 -286 -6 -210 -46 -233 b 97 -399 -46 -357 15 -399 b 253 -278 172 -399 215 -358 b 614 576 328 -119 408 133 l 678 576 l 678 596 l 476 596 l 476 576 l 592 576 l 415 175 z m 139 894 b 228 806 139 846 179 806 b 317 894 276 806 317 846 b 228 983 317 943 276 983 b 139 894 179 983 139 943 z m 381 894 b 469 806 381 846 421 806 b 558 894 518 806 558 846 b 469 983 558 943 518 983 b 381 894 421 983 381 943 z "},"ž":{"ha":643,"x_min":0,"x_max":0,"o":"m 47 0 l 590 0 l 606 192 l 590 192 b 418 19 563 107 535 19 l 249 19 l 585 596 l 89 596 l 68 431 l 83 431 b 261 576 126 528 161 576 l 385 576 z m 524 1008 l 507 1008 l 322 832 l 138 1008 l 121 1008 l 271 735 l 372 735 z "},"":{"ha":875,"x_min":0,"x_max":0,"o":"m 435 419 b 669 214 563 382 669 340 b 435 -1 669 143 621 4 z m 411 638 b 201 818 293 671 201 717 b 411 992 201 896 276 983 z m 411 1011 b 97 725 225 1000 97 867 b 411 425 97 524 260 471 l 411 -1 b 210 82 358 -1 288 6 b 97 308 133 157 106 264 l 78 308 l 78 0 l 99 0 b 142 32 108 25 117 32 b 411 -21 179 32 299 -19 l 411 -118 l 435 -118 l 435 -21 b 797 317 651 -10 797 142 b 435 632 797 531 601 581 l 435 992 b 700 725 613 989 657 851 l 719 725 l 719 989 l 696 989 b 657 960 688 967 682 960 b 435 1011 613 960 556 1010 l 435 1093 l 411 1093 z "},"":{"ha":772,"x_min":0,"x_max":0,"o":"m 47 297 b 386 -19 47 124 192 -19 b 725 297 581 -19 725 124 b 386 615 725 500 543 615 b 47 297 229 615 47 500 z m 235 314 b 386 596 235 519 268 596 b 538 314 504 596 538 519 b 386 0 538 74 514 0 b 235 314 258 0 235 74 z "},"":{"ha":514,"x_min":0,"x_max":0,"o":"m 172 19 l 69 19 l 69 0 l 444 0 l 444 19 l 342 19 l 342 576 l 444 576 l 444 596 l 69 596 l 69 576 l 172 576 z "},"":{"ha":721,"x_min":0,"x_max":0,"o":"m 65 0 l 635 0 l 635 164 l 615 164 b 456 19 607 88 543 19 l 117 19 l 117 22 l 279 93 b 635 426 463 172 635 274 b 333 615 635 528 542 615 b 64 454 113 615 64 507 b 147 385 64 411 89 385 b 228 453 194 385 228 396 b 222 513 228 468 222 490 b 317 596 222 560 240 596 b 447 435 378 596 447 556 b 65 18 447 190 218 85 z "},"":{"ha":772,"x_min":0,"x_max":0,"o":"m 38 197 b 325 -19 75 36 186 -19 b 701 289 586 -19 701 156 b 371 568 701 469 543 540 l 371 571 b 672 807 535 611 672 663 b 381 1011 672 876 622 1011 b 108 832 217 1011 108 942 b 185 765 108 781 150 765 b 272 831 219 765 272 765 b 261 915 272 843 261 901 b 358 992 261 971 307 992 b 492 817 492 992 492 867 b 336 579 492 610 382 589 b 156 517 269 567 217 556 l 167 497 b 333 553 219 531 272 553 b 514 303 514 553 514 406 b 306 0 514 143 486 0 b 60 204 135 0 72 133 z "},"":{"ha":721,"x_min":0,"x_max":0,"o":"m 410 19 l 42 19 l 110 161 b 404 593 182 311 299 476 b 578 789 497 696 578 756 b 508 835 578 807 565 835 b 238 531 418 835 372 803 b 17 0 150 354 76 158 l 410 0 l 410 -275 b 494 -257 429 -264 454 -257 b 579 -275 535 -257 560 -264 l 579 0 l 704 0 l 704 19 l 579 19 l 579 458 l 410 458 z "},"":{"ha":668,"x_min":0,"x_max":0,"o":"m 64 428 l 82 428 b 275 592 99 489 154 592 b 426 314 351 592 426 557 b 265 0 426 3 325 0 b 182 86 235 0 182 15 b 189 151 182 96 189 142 b 104 213 189 183 174 213 b 19 135 86 213 19 211 b 257 -19 19 53 126 -19 b 614 325 496 -19 614 174 b 294 615 614 500 468 615 b 103 518 186 615 135 567 l 100 521 l 147 825 b 354 764 190 803 271 764 b 615 989 454 764 494 817 l 597 997 b 419 900 529 903 463 900 b 196 1001 317 900 224 975 l 154 1001 z "},"":{"ha":772,"x_min":0,"x_max":0,"o":"m 39 417 b 390 -19 39 139 193 -19 b 732 296 568 -19 732 124 b 406 608 732 471 585 608 b 226 518 296 608 253 553 l 224 521 b 483 992 240 686 276 992 b 550 933 544 992 550 946 b 526 838 550 908 526 871 b 608 776 526 801 544 776 b 692 858 665 776 692 801 b 490 1011 692 965 589 1011 b 39 417 231 1011 39 731 z m 222 353 b 260 525 222 471 239 497 b 404 589 294 571 343 589 b 544 321 507 589 544 496 b 385 0 544 24 471 0 b 222 353 319 0 222 14 z "},"":{"ha":668,"x_min":0,"x_max":0,"o":"m 50 319 l 69 319 b 189 426 76 404 124 426 l 594 426 b 263 -193 543 146 372 -92 l 142 -306 b 114 -364 125 -322 114 -337 b 206 -419 114 -407 161 -419 b 493 11 310 -419 369 -293 b 636 596 574 208 628 417 l 50 596 z "},"":{"ha":772,"x_min":0,"x_max":0,"o":"m 54 238 b 369 -19 54 90 200 -19 b 707 303 574 -19 707 158 b 478 583 707 432 626 515 b 664 801 606 642 664 711 b 403 1011 664 921 546 1011 b 94 746 231 1011 94 903 b 275 497 94 603 176 551 b 54 238 154 438 54 381 z m 414 425 b 563 208 510 374 563 325 b 369 0 563 124 522 0 b 206 243 275 0 206 58 b 296 488 206 321 211 436 z m 226 824 b 386 992 226 917 290 992 b 519 800 515 992 519 849 b 460 593 519 642 486 615 b 226 824 319 657 226 700 z "},"":{"ha":772,"x_min":0,"x_max":0,"o":"m 39 299 b 357 -12 39 142 163 -12 b 539 78 426 -12 506 19 l 542 78 b 296 -396 510 -229 433 -396 b 222 -336 261 -396 222 -386 b 246 -236 222 -293 246 -269 b 172 -179 246 -206 225 -179 b 81 -261 113 -179 81 -207 b 289 -415 81 -382 215 -415 b 732 181 524 -415 732 -142 b 379 615 732 496 539 615 b 39 299 200 615 39 469 z m 226 274 b 382 596 226 482 253 596 b 549 218 524 596 549 436 b 365 7 549 92 489 7 b 226 274 274 7 226 74 z "},"":{"ha":722,"x_min":0,"x_max":0,"o":"m 247 -128 l 267 -132 l 303 -4 b 410 -19 349 -17 388 -19 b 656 154 583 -19 639 90 l 636 161 b 428 0 631 126 579 0 b 317 42 378 0 342 17 l 468 578 b 489 536 481 568 489 554 b 468 439 489 521 468 454 b 554 378 468 389 511 378 b 644 461 611 378 644 400 b 478 610 644 538 578 592 l 510 724 l 490 728 l 457 611 b 408 615 442 615 425 615 b 67 299 188 615 67 435 b 285 1 67 129 183 33 z m 301 61 b 254 307 258 121 254 218 b 404 596 254 463 272 596 b 450 586 422 596 439 593 z "},"∆":{"ha":906,"x_min":0,"x_max":0,"o":"m 857 0 l 857 47 l 481 1007 l 410 989 l 47 47 l 47 0 z m 654 82 l 139 82 l 393 767 z "},"Ω":{"ha":1011,"x_min":0,"x_max":0,"o":"m 964 229 l 919 231 b 815 128 890 140 872 128 l 668 128 b 917 568 778 231 917 365 b 507 1007 917 842 744 1007 b 92 560 272 1007 92 833 b 332 128 92 336 238 207 l 199 128 b 89 231 140 128 118 143 l 46 229 l 78 0 l 421 0 l 435 29 b 279 547 365 181 279 365 b 503 957 279 861 375 957 b 729 553 624 957 729 853 b 572 29 731 365 629 167 l 585 0 l 928 0 z "},"μ":{"ha":849,"x_min":0,"x_max":0,"o":"m 131 -389 l 300 -389 l 300 24 b 378 -8 322 1 344 -8 b 538 113 433 -8 510 43 l 540 113 l 540 0 l 799 0 l 799 19 l 707 19 l 707 596 l 446 596 l 446 576 l 538 576 l 538 218 b 394 29 538 117 481 29 b 300 156 324 29 300 86 l 300 596 l 38 596 l 38 576 l 131 576 z "},"π":{"ha":808,"x_min":0,"x_max":0,"o":"m 732 682 b 650 636 711 646 696 636 b 275 640 517 636 382 639 b 24 501 121 642 67 554 l 47 461 b 224 518 104 499 138 518 b 92 11 224 375 194 153 l 103 -18 b 199 8 129 -15 167 -6 b 290 496 221 38 290 164 l 290 515 b 478 513 346 515 407 513 b 464 175 471 401 464 308 b 603 -18 464 22 526 -18 b 763 83 663 -18 728 24 l 744 119 b 681 85 722 97 706 85 b 624 213 642 85 624 122 b 631 508 624 310 622 417 b 721 517 667 508 697 510 b 772 671 739 543 764 613 z "},"€":{"ha":772,"x_min":0,"x_max":0,"o":"m 682 989 l 660 989 b 642 963 658 974 649 965 b 619 960 635 960 626 960 b 585 968 607 960 601 961 b 564 978 578 971 571 975 b 499 1004 542 989 525 997 b 443 1011 481 1008 461 1011 b 221 897 376 1011 293 978 b 132 750 182 854 153 803 b 96 611 114 706 103 660 l 13 611 l 1 588 l 92 588 b 88 526 89 567 88 549 b 90 460 88 504 89 482 b 92 442 90 454 92 447 l 13 442 l 1 418 l 94 418 b 128 264 100 364 111 314 b 235 75 151 196 185 128 b 443 -21 297 10 374 -21 b 574 14 494 -21 525 -7 b 628 29 594 22 613 29 b 640 28 632 29 636 29 b 668 0 649 26 660 22 l 690 0 l 690 281 l 668 281 b 600 104 656 217 632 156 b 444 -1 569 57 521 -1 b 333 74 388 -1 357 31 b 275 418 290 154 271 319 l 528 418 l 535 442 l 275 442 b 276 565 275 514 276 510 l 276 588 l 576 588 l 583 611 l 276 611 b 286 760 275 661 279 711 b 321 899 293 807 303 853 b 371 971 332 926 347 954 b 440 992 390 985 415 992 b 532 967 474 992 506 983 b 593 901 557 950 576 926 b 631 828 608 878 619 853 b 664 719 644 793 657 757 l 682 719 z "},"ℓ":{"ha":611,"x_min":0,"x_max":0,"o":"m 554 189 b 403 85 517 133 468 85 b 286 331 321 85 286 144 l 286 453 b 492 864 413 581 492 697 b 350 1061 492 974 444 1061 b 203 976 297 1061 244 1033 b 128 614 144 903 128 828 l 128 418 l 29 343 l 49 301 l 128 357 l 128 251 b 178 40 128 124 144 83 b 333 -17 208 6 257 -17 b 588 160 446 -17 529 49 z m 286 693 b 344 1011 286 944 299 1011 b 401 861 383 1011 401 953 b 286 531 401 732 353 610 z "},"℮":{"ha":1240,"x_min":0,"x_max":0,"o":"m 1192 481 l 1192 494 b 619 1008 1192 779 936 1008 b 49 494 304 1008 49 779 b 619 -18 49 211 304 -18 b 1071 181 803 -18 969 61 l 989 181 b 621 10 899 78 768 10 b 271 163 483 10 360 69 b 258 194 263 172 258 182 l 258 475 b 265 481 258 479 261 481 z m 981 517 b 975 508 981 514 979 508 l 265 508 b 258 517 261 508 258 514 l 258 793 b 272 828 258 807 263 818 b 621 978 361 919 485 978 b 968 832 756 978 878 921 b 981 799 976 824 981 811 z "},"∂":{"ha":764,"x_min":0,"x_max":0,"o":"m 375 618 b 144 511 283 618 197 574 b 58 267 99 456 58 368 b 321 -17 58 89 164 -17 b 625 201 465 -17 565 72 b 694 554 674 303 694 440 b 621 894 694 644 678 782 b 315 1101 554 1022 454 1101 b 114 1044 226 1101 163 1074 b 164 931 100 1007 140 929 b 364 1018 214 972 286 1018 b 531 910 446 1018 503 968 b 564 690 561 840 568 761 b 549 532 561 635 554 578 b 378 618 506 592 436 618 z m 414 553 b 535 465 474 553 519 500 b 465 185 519 347 503 269 b 324 32 436 115 389 32 b 218 178 256 32 217 90 b 281 472 218 282 239 399 b 413 553 321 538 365 553 z "},"∏":{"ha":993,"x_min":0,"x_max":0,"o":"m 954 999 l 35 999 l 35 954 b 167 828 157 944 167 933 l 167 58 b 39 -78 167 -54 154 -68 l 39 -124 l 431 -124 l 431 -78 b 333 58 332 -68 333 -51 l 333 897 b 382 943 333 938 339 943 l 606 943 b 660 892 651 943 660 938 l 660 58 b 551 -78 660 -61 653 -69 l 551 -124 l 953 -124 l 953 -78 b 825 58 835 -68 825 -54 l 825 828 b 954 954 825 931 833 944 z "},"∑":{"ha":788,"x_min":0,"x_max":0,"o":"m 756 165 l 710 176 b 507 10 650 18 632 10 l 174 10 l 488 493 l 244 944 l 463 944 b 613 890 567 944 592 932 b 663 744 633 854 649 807 l 708 754 b 692 999 701 851 693 972 l 44 999 l 44 956 l 346 376 l 39 -90 l 39 -132 l 690 -132 z "},"∙":{"ha":386,"x_min":0,"x_max":0,"o":"m 94 392 b 193 293 94 338 139 293 b 292 392 247 293 292 338 b 193 490 292 446 247 490 b 94 392 139 490 94 446 z "},"√":{"ha":789,"x_min":0,"x_max":0,"o":"m 771 1256 l 704 1269 l 511 61 l 508 61 l 299 640 l 47 529 l 67 474 l 189 531 l 488 -251 l 525 -235 z "},"∞":{"ha":1069,"x_min":0,"x_max":0,"o":"m 1004 411 b 790 640 1004 549 910 639 b 542 488 667 640 599 553 b 293 640 469 579 396 640 b 64 403 163 640 64 543 b 282 169 64 264 168 169 b 536 326 393 169 465 238 b 782 169 628 204 703 169 b 1004 410 894 169 1004 258 z m 294 267 b 164 401 219 267 164 328 b 290 546 164 483 211 546 b 483 399 378 546 426 475 b 296 267 431 335 374 267 z m 781 546 b 904 403 854 546 904 486 b 785 267 904 342 861 267 b 590 407 715 267 672 304 b 778 546 633 458 696 546 z "},"∫":{"ha":561,"x_min":0,"x_max":0,"o":"m 228 -6 b 185 -222 235 -137 222 -222 b 110 -131 154 -222 156 -131 b 18 -215 65 -131 17 -165 b 119 -296 19 -258 63 -296 b 369 374 265 -296 394 -126 l 342 904 b 385 1125 333 1086 358 1125 b 464 1040 417 1125 410 1040 b 543 1119 503 1040 543 1067 b 442 1197 543 1172 486 1197 b 199 569 324 1197 172 1092 z "},"≈":{"ha":746,"x_min":0,"x_max":0,"o":"m 628 636 b 507 536 592 576 558 536 b 392 586 468 536 440 556 b 249 636 358 606 314 636 b 49 493 164 636 88 575 l 115 436 b 240 535 147 486 181 535 b 356 489 283 535 317 515 b 507 435 414 453 453 435 b 693 579 585 435 651 497 z m 628 381 b 507 279 589 319 558 279 b 392 329 464 279 433 304 b 249 379 358 349 317 379 b 49 236 165 379 88 318 l 115 179 b 240 279 147 229 179 279 b 356 232 282 279 315 258 b 506 179 413 197 451 179 b 693 322 586 179 651 240 z "},"≠":{"ha":746,"x_min":0,"x_max":0,"o":"m 550 718 l 469 750 l 403 599 l 65 599 l 65 496 l 364 496 l 286 310 l 65 310 l 65 207 l 247 207 l 193 85 l 274 53 l 340 207 l 679 207 l 679 310 l 379 310 l 460 496 l 679 496 l 679 599 l 497 599 z "},"≤":{"ha":746,"x_min":0,"x_max":0,"o":"m 676 146 l 676 265 l 174 508 l 174 513 l 676 754 l 676 874 l 72 565 l 72 454 z m 682 -11 l 682 93 l 67 93 l 67 -11 z "},"≥":{"ha":746,"x_min":0,"x_max":0,"o":"m 75 874 l 75 754 l 578 511 l 578 508 l 75 265 l 75 146 l 679 454 l 679 565 z m 679 -11 l 679 93 l 68 93 l 68 -11 z "},"◊":{"ha":796,"x_min":0,"x_max":0,"o":"m 729 479 l 461 1064 l 338 1064 l 67 479 l 335 -100 l 460 -100 z m 614 479 l 401 4 l 397 4 l 182 481 l 396 954 l 401 954 z "}," ":{"ha":386,"x_min":0,"x_max":0,"o":""},"­":{"ha":514,"x_min":0,"x_max":0,"o":"m 126 231 l 388 231 l 388 367 l 126 367 z "},"ˉ":{"ha":386,"x_min":0,"x_max":0,"o":"m -31 850 l 417 850 l 417 892 l -31 892 z "},"":{"ha":772,"x_min":0,"x_max":0,"o":"m 47 297 b 386 -19 47 124 192 -19 b 725 297 581 -19 725 124 b 386 615 725 500 543 615 b 47 297 229 615 47 500 z m 235 314 b 386 596 235 519 268 596 b 538 314 504 596 538 519 b 386 0 538 74 514 0 b 235 314 258 0 235 74 z "},"":{"ha":772,"x_min":0,"x_max":0,"o":"m 301 19 l 199 19 l 199 0 l 574 0 l 574 19 l 471 19 l 471 576 l 574 576 l 574 596 l 199 596 l 199 576 l 301 576 z "},"":{"ha":772,"x_min":0,"x_max":0,"o":"m 90 0 l 660 0 l 660 164 l 640 164 b 481 19 632 88 568 19 l 142 19 l 142 22 l 304 93 b 660 426 488 172 660 274 b 358 615 660 528 567 615 b 89 454 138 615 89 507 b 172 385 89 411 114 385 b 253 453 219 385 253 396 b 247 513 253 468 247 490 b 342 596 247 560 265 596 b 472 435 403 596 472 556 b 90 18 472 190 243 85 z "},"":{"ha":772,"x_min":0,"x_max":0,"o":"m 38 197 b 325 -19 75 36 186 -19 b 701 289 586 -19 701 156 b 371 568 701 469 543 540 l 371 571 b 672 807 535 611 672 663 b 381 1011 672 876 622 1011 b 108 832 217 1011 108 942 b 185 765 108 781 150 765 b 272 831 219 765 272 765 b 261 915 272 843 261 901 b 358 992 261 971 307 992 b 492 817 492 992 492 867 b 336 579 492 610 382 589 b 156 517 269 567 217 556 l 167 497 b 333 553 219 531 272 553 b 514 303 514 553 514 406 b 306 0 514 143 486 0 b 60 204 135 0 72 133 z "},"":{"ha":772,"x_min":0,"x_max":0,"o":"m 435 19 l 67 19 l 135 161 b 429 593 207 311 324 476 b 603 789 522 696 603 756 b 533 835 603 807 590 835 b 263 531 443 835 397 803 b 42 0 175 354 101 158 l 435 0 l 435 -275 b 519 -257 454 -264 479 -257 b 604 -275 560 -257 585 -264 l 604 0 l 729 0 l 729 19 l 604 19 l 604 458 l 435 458 z "},"":{"ha":772,"x_min":0,"x_max":0,"o":"m 115 428 l 133 428 b 326 592 150 489 206 592 b 478 314 403 592 478 557 b 317 0 478 3 376 0 b 233 86 286 0 233 15 b 240 151 233 96 240 142 b 156 213 240 183 225 213 b 71 135 138 213 71 211 b 308 -19 71 53 178 -19 b 665 325 547 -19 665 174 b 346 615 665 500 519 615 b 154 518 238 615 186 567 l 151 521 l 199 825 b 406 764 242 803 322 764 b 667 989 506 764 546 817 l 649 997 b 471 900 581 903 514 900 b 247 1001 368 900 275 975 l 206 1001 z "},"":{"ha":772,"x_min":0,"x_max":0,"o":"m 39 417 b 390 -19 39 139 193 -19 b 732 296 568 -19 732 124 b 406 608 732 471 585 608 b 226 518 296 608 253 553 l 224 521 b 483 992 240 686 276 992 b 550 933 544 992 550 946 b 526 838 550 908 526 871 b 608 776 526 801 544 776 b 692 858 665 776 692 801 b 490 1011 692 965 589 1011 b 39 417 231 1011 39 731 z m 222 353 b 260 525 222 471 239 497 b 404 589 294 571 343 589 b 544 321 507 589 544 496 b 385 0 544 24 471 0 b 222 353 319 0 222 14 z "},"":{"ha":772,"x_min":0,"x_max":0,"o":"m 101 319 l 121 319 b 240 426 128 404 175 426 l 646 426 b 314 -193 594 146 424 -92 l 193 -306 b 165 -364 176 -322 165 -337 b 257 -419 165 -407 213 -419 b 544 11 361 -419 421 -293 b 688 596 625 208 679 417 l 101 596 z "},"":{"ha":772,"x_min":0,"x_max":0,"o":"m 54 238 b 369 -19 54 90 200 -19 b 707 303 574 -19 707 158 b 478 583 707 432 626 515 b 664 801 606 642 664 711 b 403 1011 664 921 546 1011 b 94 746 231 1011 94 903 b 275 497 94 603 176 551 b 54 238 154 438 54 381 z m 414 425 b 563 208 510 374 563 325 b 369 0 563 124 522 0 b 206 243 275 0 206 58 b 296 488 206 321 211 436 z m 226 824 b 386 992 226 917 290 992 b 519 800 515 992 519 849 b 460 593 519 642 486 615 b 226 824 319 657 226 700 z "},"":{"ha":772,"x_min":0,"x_max":0,"o":"m 39 299 b 357 -12 39 142 163 -12 b 539 78 426 -12 506 19 l 542 78 b 296 -396 510 -229 433 -396 b 222 -336 261 -396 222 -386 b 246 -236 222 -293 246 -269 b 172 -179 246 -206 225 -179 b 81 -261 113 -179 81 -207 b 289 -415 81 -382 215 -415 b 732 181 524 -415 732 -142 b 379 615 732 496 539 615 b 39 299 200 615 39 469 z m 226 274 b 382 596 226 482 253 596 b 549 218 524 596 549 436 b 365 7 549 92 489 7 b 226 274 274 7 226 74 z "},"":{"ha":772,"x_min":0,"x_max":0,"o":"m 272 -128 l 292 -132 l 328 -4 b 435 -19 374 -17 413 -19 b 681 154 608 -19 664 90 l 661 161 b 453 0 656 126 604 0 b 342 42 403 0 367 17 l 493 578 b 514 536 506 568 514 554 b 493 439 514 521 493 454 b 579 378 493 389 536 378 b 669 461 636 378 669 400 b 503 610 669 538 603 592 l 535 724 l 515 728 l 482 611 b 433 615 467 615 450 615 b 92 299 213 615 92 435 b 310 1 92 129 208 33 z m 326 61 b 279 307 283 121 279 218 b 429 596 279 463 297 596 b 475 586 447 596 464 593 z "},"∕":{"ha":103,"x_min":0,"x_max":0,"o":"m -224 -7 l -196 -19 l 326 999 l 299 1011 z "},"Ω":{"ha":1011,"x_min":0,"x_max":0,"o":"m 964 229 l 919 231 b 815 128 890 140 872 128 l 668 128 b 917 568 778 231 917 365 b 507 1007 917 842 744 1007 b 92 560 272 1007 92 833 b 332 128 92 336 238 207 l 199 128 b 89 231 140 128 118 143 l 46 229 l 78 0 l 421 0 l 435 29 b 279 547 365 181 279 365 b 503 957 279 861 375 957 b 729 553 624 957 729 853 b 572 29 731 365 629 167 l 585 0 l 928 0 z "},"ﬁ":{"ha":875,"x_min":0,"x_max":0,"o":"m 63 0 l 408 0 l 408 19 l 324 19 l 324 576 l 564 576 l 564 19 l 479 19 l 479 0 l 826 0 l 826 19 l 733 19 l 733 596 l 324 596 l 324 775 b 489 992 324 835 324 992 b 571 943 522 992 571 985 b 556 849 571 915 556 892 b 642 788 556 800 601 788 b 725 864 689 788 725 815 b 483 1011 725 981 574 1011 b 210 878 390 1011 278 982 b 154 596 160 797 154 722 l 63 596 l 63 576 l 154 576 l 154 19 l 63 19 z "},"ﬂ":{"ha":849,"x_min":0,"x_max":0,"o":"m 53 576 l 146 576 l 146 19 l 53 19 l 53 0 l 392 0 l 392 19 l 315 19 l 315 576 l 415 576 l 415 596 l 315 596 l 315 797 b 424 992 315 888 319 992 b 507 935 457 992 507 982 b 486 853 507 922 486 867 b 544 793 486 810 522 800 l 544 19 l 467 19 l 467 0 l 806 0 l 806 19 l 714 19 l 714 989 l 611 989 b 540 1000 600 989 572 994 b 436 1011 508 1006 471 1011 b 193 901 382 1011 264 1010 b 146 596 146 829 146 775 l 53 596 z "},"¹":{"ha":463,"x_min":0,"x_max":0,"o":"m 204 424 l 124 424 l 124 404 l 396 404 l 396 424 l 317 424 l 317 1011 l 278 1011 b 83 883 221 954 154 919 l 93 865 b 204 924 126 879 143 888 z "},"³":{"ha":463,"x_min":0,"x_max":0,"o":"m 103 696 b 213 732 144 731 199 732 b 315 603 315 732 315 639 b 186 410 315 501 308 410 b 39 528 115 410 58 464 l 18 528 b 204 390 42 433 107 390 b 439 581 333 390 439 474 b 249 744 439 686 336 738 l 249 747 b 419 885 324 767 419 793 b 244 1011 419 979 317 1011 b 63 901 199 1011 63 999 b 115 854 63 854 113 854 b 172 900 132 854 172 863 b 164 949 172 907 164 940 b 219 992 164 985 196 992 b 300 896 271 992 300 961 b 233 763 300 850 290 778 l 139 738 b 92 714 122 733 107 724 z "},"²":{"ha":463,"x_min":0,"x_max":0,"o":"m 143 496 l 325 672 b 418 846 418 761 418 824 b 228 1011 418 953 328 1011 b 51 885 156 1011 51 971 b 106 844 51 857 82 844 b 163 888 135 844 163 861 b 154 933 163 894 154 926 b 221 992 154 953 154 992 b 293 846 251 992 293 992 b 42 436 293 668 242 615 l 28 424 l 28 404 l 428 404 l 428 579 l 408 579 b 271 496 399 496 354 496 z "},"‐":{"ha":514,"x_min":0,"x_max":0,"o":"m 126 231 l 388 231 l 388 367 l 126 367 z "}}}
